<svg fill="currentColor" stroke="#fff" stroke-width="2" xmlns="http://www.w3.org/2000/svg" version="1.0" viewBox="0 0 660 397">
    <path d="M50 210.2l.6-1.1.6-1.3.2-2.3 1-1 .1-1.4 1.7-1.4-1-1 1-.8.9-.5v-1.6l.9-.5 1-1 1.5-.7.5-1.6-1.2-.8-.3-1 .8-.7V190l.8-.9 1.7-.1-.4-2.2.6-2-.7-1.5-.1-1.6-1.4-1.4.7-1.5-1.3-1.6h-2.4l-1.8 2.4-2.3 1v1.6l-1.2 1.4-2.7.1-1 1.3v2.3l-2.6 1.7-1.7.4.6 2-1.2 2.2-2 2-.3 1.6 1 2.2L42 201l-.5 1.8-.7 1.6 2 .6 1.8 1.7v3.8l1.8-.2h0L48 212l.6-1.9z"/>
    <path d="M39 217l-1.3 2.8-.6 2.6.1 1.9-1 .7 1.5 1.7-.6 2.4-.5 2.2 1.6.9v1.9l1-1 1-1.8 1.4.1 1.6-.8 1.4-.3 1.6-1.6h1.4l1 1 .4 1.4 1.5.1.5-.5.9.3 1.5 1.2 1.2-1h1.5l2-.4.7-1.2 1.4-1.5 2-.8.5-1.8-.6-1.2-1.2-1-.8-1.7-.9-.8v-1.2l-1.8-.5-1.6.5-2.1-.5-1-1.1-1.6-1-1.2-1.2-.4-2.2-1.5-.8-.1-.7-1.5-1.8-1.8.2-2 1.7h0L42 214l-2.1.6z"/>
    <path d="M30.6 228.2l-1.5.1-.6 2-1.4 1.6-2 2.1-1 1.8 1 1.6 1.1 1.2 1.5-1.3 1 1.5 1.1 1.3 1.6.2 1.2 1.2.8 2.2-.2 1.7-.8 3h1.2l.8-1.1 1.5-.5.9.7h1.3l1.2-1.2h1.1l.3-1-.4-1 1-.3h1.2l.9.9.6-.6.3-1.4.7-.7-.3-1.6-1-1v-1.3l.8-.9v-1.6l.5-1.7-.9-.8.1-1-1-1.7-1.6.8-1.4-.1-1 1.8-1 1v-2l-1.6-.8-2 .6h0l-2.2-.7-.6-1.7z"/>
    <path d="M28.5 251.8l1-.9.7-1.6h1.3l1-.9h1.1l.8-1.1 1.5-.5.9.7h1.3l.6 1 1.1.4.8.7v1.8l1.2.3.3 1 1.2.6.3 2.4 1.1 2 .4 2.5 1.2.3.8.8v2l1.4.1 1.5 1-1.3 1.4-1.6-.6-1 1v1.7l-1.1.5-.5-1.7-1.6-1.7-2.4-1.5-1.5.3-3-.6V262l-1.5-1.7-.7.8H32l-2.2-.5 1-2.4h0v-2.3l-1.1-2.2z"/>
    <path d="M35.6 276.7l.7-2.3-.7-3.4-2-1.5-2.3-2-.8-2.4-1.6-1.3-.5-1.6 1.4-1.6 2.2.5h1.8l.7-.8L36 262v1.2l3 .6 1.5-.3 2.4 1.5 1.6 1.7.5 1.7.4 1.4-1 .8 1.4 1.4-.8 1.6h-1.1v2.1l.3 1.6-1.6.9v1.9h-1.3l.4 1.4-1.8 1-.3-.3h0l-.7-2.5-1.6-1z"/>
    <path d="M42.6 280v-1.8l1.6-.9-.3-1.6v-2.1h1l.9-1.6-.8-.8-.6-.6 1-.8-.4-1.4 1-.5v-1.6l1.1-1.1 1.6.6 1.3-1.4 1.8.3.8 1.7 2 .7-.4 2 1.3 1.3 1.6.1 1.5 2.2 1 1.1-.4 1.7 1.2 1.3 2 .8.7 1.5 1.2 1.2.7 2.2.8 2.2-.7.8h-2.2l-1.6-.9-.4-1.2-1.5-.3-1.5 1.3h-3l-.8 2.7-2.5 2.5H49l-1 1h-1.5l-.7-1h-1.8v-1.4l-.8-.9-1.9-.8v-2.3l-1.3-1.7h0l1.8-1-.4-1.3zM11.7 338.9l-1.6-2.5-.6-2.2 1.3-1.4 1.5-.2 1.1-1.1h1l.6 1.3 1 1.4h2l1.6-2 1.3.4v1.7l1.1.8.3 1.4.6.9h-1.8l-.6 1 .9.8.5 1-.6 1.4-1.4.6-1-.1-1.3 1.3-1.3.5h0l-1.6-.7-2.3-1.7zM24.4 357l1.3 1.3.4 1.2 1-1.7h1.6l.2-1.2-.5-1.7.5-2.6 1.4-.6h2.1L32 350l-2-1.9-.8.7v1.3l-.8.8-2 .2-.6.6-1-.9h-1.4l-1 .6-.8-.2-1.5.5h0l.5 3.5 1.5 1.5z"/>
    <path d="M28.4 361.7l-.5-2-1.8-.2 1-1.7h1.6l.2-1.2-.5-1.7.5-2.6 1.4-.6.7 1.4 1.7 1.4-.4 1.7h0l-1 2.2-1.3 2.1zM47.7 355.2l.7 2.1-.6 2-.5 2-1.2 1.3v.7l-1 1-2.4 4v3l.7 3.8-.5 2.8.3 3.5-2.6 1.2-1.7-.7-2.4.8-2.4-.5-.3-2-1.1-3.7-.3-2.6-1.6-1.2v-1.5l-.9-2.3-1.5-2 1-1.6 1.8-.2 1.2-1 1.7.2 1.1-.9 1.8 1 .6-2.5 1.9-2.3 2-1.1 1-.4-.2-2.5-2.1-.2-1.2-1.7-1.6-1.7.7-1.7-1.1-.6v-.9h1.3l.7-.7-.5-1 .8-.8 1.4.5 1.6-.5 1.7-1.1 1.4 1 .8 1.2 1.1.4.5 1.4-.1 2h0l-1.1 1v1.9z"/>
    <path d="M55 348.6l1.5-.6v-1.6l-1.1-.8h-1.5l-.3-.9 3.5-2.5v-1l-.7-.7v-1.3l-.8-1.1.9-.9 1.2.6.2.8h.7l.2-1.4 2.2.2.7-1.8-1-1 .7-2.8 1.2-.7.3-1.3.3-1.4h-2.4l-1-1.5-.2-2 .4-1.8.3-1.8-1.3-.8-.6-2.2-2-.5-1-1.1v-1.4l-1-.4-.8 2.2-1.1.4-1-1-1.4.4-1.1-1.2-1.9 1.8v2.4l1.3.1 1.6-.9v1.6l-1 2.3-2.2 1.6h-2.5l-2.2 2.4-1.2-.3-.6.5-1.1-.5-.8-.8-.8-3.3-1.3-.3-1-1v-1.5l-.5-1.6h-1.3v1.1l-.7.8h-2l-1-.8-1.4 1.2 1.2.6.5 1.4h1l1-.3.4 1.4.9 1 1.9-.4 1.2.5.2 1.6 1 1.2.3 1.3 1 1 .7 2-.7 1.5.8 1.6 1 1.1.9 1.1v1.3l1.1 1.2.3 1.7.9 1.4v2.5l1.4 1 .8 1.2 1.1.4.5 1.4-.1 2 1.3.3h0l2.2-.7h2zM156 339.3l.5 1.9 1.5 1.5-1.5 2.1-1.4 1.4h-2.3l-2.4.2-1.2-1.3-.9-1.8h-1l-1.2 1.2h-1.8l-2.1-2.1-.4-1.2-1.6-1.7v-2.8l-1.3-1.3h-2.4l-2 .7-.8-1.6-2-1.7-1.8-1-2.5 1.3-2.2.3-1.8-.6-1.3-2.5-1.8-1.6-1.2 2.2h-1.4V329l1.3-1.3-.9-1.9-1-2.8-.5-3-1.6-2-2.5-1-.7-1.8-1.4-1.4-2.6.4h-1.5v-2l-.7-2.3v-1.2h3.8l1.1-2.3 2-1.5 1.2.3.7-1.4 2.9-.6 1.4-3.5 2.5-1.4 1.8-1.9.7-3h1.7l1.8 1.8-1.2 1.3 1 1 .7 1.3v2.8l.7.9-.6 3 1.2.7 1.4 1.5 1 2.4v2.4l.6 1.5-.6 1.5v2.1l-.4 1.1 1.2.7 1.1-1.1h1.8l.7 1.2-.7 1.6-1.7.8.4.8 1.1.3-.3 2.1-.7.7.4 1.7h1l.2 1 1.3 1.3 1.3-.6.9-1 1.1.6.4 1 1.2 1 1.3.3 1.3-1 1-2.2h3.7l1.3-.5 1.7.8h1l.8 1.3-.5 1.4-2 1 .1 1.4h1.2l.3 1.8h0l.7 1.5 1.5 1.6z"/>
    <path d="M169.2 320l-2.4-1.3h-2.2l-.8 2.4.8 1.7-1.5 1.5 1.1.8 1.2 1.2 1.4 1.4-1.3 1.4H164l-1.8-1.8h-2.7l-1.8.8.7 2.8-.7 2-1.8.5-2.2-.6-.8 2.4-.3-1.8h-1.2l-.1-1.4 2-1 .5-1.4-.7-1.3H152l-1.7-.8-1.3.5h-3.7l.6-1.2 1.7-.8.2-1.6 1.5-2.7h1.1v-1.9l1.4-2v-1.2l2.2-2.2 1.6-.6v-.8l1.8-.2.8 1.1h1.2v-2.1l-.7-2.4-2.6-.8-1.2.7-2.6-.2-1.3-2.3-.4-3-1-1-.4-2 2.3-1.9 1.6.5 1.7 1 1.2 1.2v1.5l2.2.8 1.4-1.5 2.4-.6v-1.3l1.3-2.4.5-1.7-.4-1.9 1.4-.6 1.8 1.3.6 1 2 .7.3.9 1.4.1 1.4 1.5 1.4-1.3 1.5.8 1.2 1.2 1 1.2.1 2.4.3 2.8-1 1.6H175l-1 1.1.6 2-1 1.1H172l-.3 1.5 1.2 1.3h1.4l.2 1h2.1l.9 2.3-1.6 1.6-.5 1.6h0l-2.7-.6-1.9.6zM231.7 345.7l-1.2-1.8-2.2 1.1h-1.8l.6-3 2.6-1.1v-1.6h-2.2l-1.9-1.2-1.1 1.2-2.2-.6.7-2.6-1.5-1.6-2.1 1.3-2.4-.6-.5-2 1.3-1.3v-2.1l.5-1.6-.8-2.7-1.6-.8v-1.3l.6-1.3 1-1v-1.6l1-.1 1-1.2.5-1.1v-2l2.6-2.7 2-.4.8-.8v-1.4l-1.6-1-.5-1.2-1-1-1.4-.8v-1.2l1.6-.8-.7-2.3.2-1.7 1.5-1.7.7-1.3 1.6-1.1 1.7 1.7-1 1v1.4l1.4.5 1.8.6 1.2.6 1.3.9h2.2l.7-1.1 1.8 1 1.6.5h2.6l2-1 1.8-1.8 1-1.4.3 1-.6 1.4-.6 1.5v2.2l1.2 1.3-.4 2.8 1.2 2.4.7 2v5.2l-1.7 1.8.3 1.2v1.6l-.8.8-1.5-.5-1.3.5-2 2.4-1.2 3 .5 4v2.1l1 1.2v1.2L240 339l-1 2.7h0l-1.7 1.8-3 .9z"/>
    <path d="M245.9 345.8l-1.8-.8v-2h1.5l1.2-1.7-.5-1.5h-2l-1.5 1.6-2.2.1h-1.7l1-2.6 1.1-1.2v-1.2l-1-1.2v-2.2l-.5-3.8 1.2-3 2-2.5 1.3-.5 1.5.5.8-.8v-1.6l-.3-1.2 1.7-1.8v-5.3l2.3.6 1.3 1.3h2.6l2.8.4 2.4 1.4 2.9 1.2 1.8 1.8 1.4 1.5 2.1 3h4.6l1.9 2.7h2.1l2.5-.7 1.6-1.6 1.3.7.4 2.8v2l.8 1-1 1 1.2 1.1 1.4-1.4 1.3-1.6 2.8.2.3 3.6.7 1.6.5 3.3-.4 4.6 1.4 2.1-3.5 2h-2l-1.5 1.2-1.4-.8-1.5 1.5-1.2-1.3-2 2-1 2.6-1.4.6-1.4-2.1h-1.2l-1-1.5v-1.6l-1.9-2-1-1-2.2.2-3 1-3.2 2.4h-3.5l-2 1-1.6.5-1.2-1.2-.7 1-1.7.9h0l-1.2-1.3-1.2-2.6z"/>
    <path d="M277.7 377.6H275l-1.3 1.4-2.7.5-1-1.1-2.4.4-1.3-1.3-1.1-1.2v-1.7l-1.2-1.4-1.7.6-1.2 2.5-2.3.4-1.4-2.8-.7-2.6-.5-2.8-1.8-3.3v-2.6l-1.7-1.7v-3.6l-1.3-4.4-1.8-1.8 1.3-.7 1-1.2 1.3 1.2 3.6-1.5h3.5l3.1-2.4 3.1-1 2.2-.2 3 3v1.6l.9 1.5h1.2l1.4 2.1 1.4-.6 1-2.5 2-2.1 1.2 1.3 1.5-1.5 1.4.8 1.4-1.1h2.1l3.5-2 1.3 2.5h1.9l1.3 2.7 1.2 1.2.4 2 1.7 1.1h1.6v1.5l-1.5.8 1 2v1.7l.7 1.8-1.7.9-1 1.7 1.2 1.2-.8 1.3H297l-1 1.4-2-1.4-1.3 1.4v1.6l-1.2 1.2-1.3 1.5h-1.9l-2.8 1-2.2.8-1 1.1 1.4 1.5 1 1v1.9l-2.1.1h0L281 380l-2-1z"/>
    <path d="M307.4 393.7l-2.7 1.5-1.4 1.5-3-.6-1-1.6-1.2-2.2-.5-2.3-1.7 1.7-2.7 1.1-2.6-.8-2.8-.8v-2.6l-2.3-1.5-.8-2-1.8-1.1-.4-2.7 2-.1v-2l-.9-1-1.4-1.4 1-1 2.2-.8 2.8-1h1.9l2.5-2.8v-1.6l1.3-1.4 2 1.4 1-1.4h1.1l.8-1.3-1.1-1.2 1-1.7 1.6-.9 2 2h2.2l1.8 1h1v1.9l-1.2 1.4-1.6 1.6.5 2.1-1 1 2.2 2.3h1.7l1-2.2h1.1l.3 2.6.8 2.4 2.4 2.5 2 2-.6 1.5-1.7.4-.8.8 1.6 1.7v1.8l.8 1.5h0l-2.5.6-1.8 1.8z"/>
    <path d="M362 373l-.5 2.8 1.4 1.7v2.5l1.8 1.9v2.6l-2.5 1.7-2.4 2.5h-5l-2.9-.8-3 .6-2-.7-3.2-1.1-1.7-1.8-2-2-2.4-.8-2.9 1.2-1.8-1.9-2.3-1-1.8 2h-2.3l-.8 2.2H323l-3.5 2.3-2.2 2.2h-2l-.5 2.3-.8-1.5V388l-1.6-1.7.8-.8 1.7-.4.5-1.6-2-2-2.3-2.4-.8-2.4-.3-2.6 1-1 1.8.6 2 .1 2.1-2v-2.5l2.3-1.2 1.8 1.9 2.5.9h2.3l2.2 1.1h1.7l2.2-1 3-2.8 2.3-.6v-2.8l1.6-1.7v-1.8l2.5-.6.6-4 1-1 2.8.4 2-2h2.4l1-.9 1 .5.6-1.4h2l1.5 1.2 2.4.3 2 2 1.3.7h2.3l1-1 1.1 1.1.9 1-1.2 1.2v2l-1.2 1.1.4 1.9 1 1 .2 2.1h0l-1.7 1.7-1.3 2.8zM548 328.5l-1.1 1.3-2.5-.7-2-.5-3 .4h-3l-1 1.2-3.3 1.2-3.1-.6-1.4-2.7-1.5-1.6s-1.8-1.1-1.8-1.6c0-.4-2-2-2-2l-2.6-.5-1-2.6-2.5-2-1.7-1.7-2.3-.7-.8-2.3-2.2-1-1.2-1.3-4.3-.4h-2.2l-2.5 1.4-3.2-.6-2.5 1h-2.6l-3.6 2.7-1.7 1.7-1.6-2.7-.6-1.5h-1.8l-.6-2.3-.9-1.4 1.6-1v-.8h-.8l-1.5-1.6-1.1-.1.2-2.8-.7-1.3-.7-2.1-1.7-1-1.2 1.8-1.3-.5v-1.8l-1-.9-1.2-.4-1.3 1.4-.6 1.6-2.2-.6-.7-1.3 1.3-1.7-.8-1.2-1.4.4-1.8-.4-1.3-1.4v-1.3l1.8-2 2-1.7h2.1l1-1 1.1 1.2 1.6.3.8-.7h2l1 1.2h1.3l.4-1.7 2.6.6 1-1 1.9-.4 1.7.8 2.3 2.3 1.7-.8 2-.5.8-1.2 1.5.7 1-1.1h1.2l1.1 1.2 4.2-4.4 2.3.4v-1.5l2.9-1.1 2 .4 2.1-1.4v-2.2l3.3-2.2 3.3-2.7.8.5 1.4-.7 1.2-1.6 1.7-.2 1.4-1.5 2-.4 1.9 1.1-.8 2s.2 1.4 0 1.4a16 16 0 00-1.2 2v3.3l-.8-.1-.6 1.5 1.2 2v1.5l-1.3.7-.8 1.8 1.4 1.7 2.6.4.9-.8 1.7-.6 3 4.1 1.2-1.1h1.3l2-3 2-.7.7-.8-.5-2 .6-1.8 2-.4 1.1-1.1 1.2-2 2-.3 1.8 2 .5 3.3 2 1.4-.8 2.7-3.5 1.3h-1.8l-.9 1.1 2.2 2.3v1.4l-1.8 2.2-.2 3.2-1.9 1.7v1.5L539 304l1.3 2-1 1.9.4 4.4 1.2 1.2h1l1.2 1.9 1-1 2.2.3.5 1.7 2 1.5.1 1.6 1 .2 1.1 1 .1 2.6-1 .4.4 1.7-.4 1.3.2 2.4-2.3-.6z"/>
    <path d="M571.8 318.8l-2.6 1.4-.6 2.2-1.7 2.9-1.9 2.5.9 2.7-2.3 2-2.2 1.2-2 .7-.4 2h-2l-2-1.2-1.6-.6v-2.5l-1.6-1.6-1.4-1.4-.2-2.4.4-1.3-.4-1.7 1-.5 1.1.3 1.1-1.8 1-1-.2-2.3 1.8-.3 1.8.4 2.4-1.2 1.7.8 2 2.6 1.4-1.9s2.8-.5 3-.7l1-2 2.2-.3 1.8-.8-.2 1.8.7.7-.2 1.3h-1.8 0zM601.2 321.6l.6 4.2v4.2l-.6 2.2v9.5l-.7 4 .7 4-.3 5.3v2.5l-2 3.6-1.5 3.1-1.5 3h-1.4l-2.7 1.2-2.2 1.3-1.5-.7v-1.4l-.8-.9-.8 1.9v2l-1-.9-1.3-1.4v1l-.4 2.8.4 1.9-.6 2.1-.9 1v2.8l-2-.1-.9-.9.8-2.5 1.3-2.6v-2.2l-1.2-2.6-2.2-2.4-1.2-1.2-1-2.5-2-2-1.9-.7V358l1.3-1.4 1.2-1.2v-2.2l1.4-1.5 1.7-.9 1.8.6 1.5-1.6 1-2-1.7-2.7.8-2.3-1-2.4-.2-2.5-1.5-2 .4-1.8-1.2-2.1 2.1-.3v-1l-1.1-1.1.2-2.1 1.9-2.7 1.5.5.4.4h1.4l.5-.8 2.2.4.2-.7 2.2-.4 1.6-2.2v-3l-1.2-.4.3-1.9 2.6-.9.6-1.6.2-2.1-.8-2.1-.8-.3-.7 1.4-1.7.2-.5-1.6-2-.2-.4-1.5 2.2-1.8.7-3 1.3-.2 1.5 1.2 1.1 1.2 1.5-.1.7 1.4-.5 1 1.8 1.4 1.7-1.5v4h0l1 3.3 1 3.5zM580.4 123.6l1.4 1.4v3.5l1 2.7.2 4.1-.7 2.6-.9-2.2-1.9-1v2.7l-1.6-1.6-1-1.1-.9-1.9-3-2.8 1 2.4-1 2.6h-2.8v1.8l-1 3.6-1.1 1.4v4.8l2 1.3-.3 3.1 1.9 3v3.4l.6 4.3 1.7 1.8v2l1.5 1.5 1.4-.2 1.2-1.1.9-1h1.6l-.1 2.1-1.7.6v3l-3.2.5.7 3.8-.3 1.6-2 1v2.2l-.7 2.1s-2.5.6-2 .1c.4-.5-1-1-1-1v-1.4l.4-1.4 1.8-.6-.8-.8-2 .7-2 .4v1l-3 1.4-1.4 1.8-1.7.5-1.4 1.4-.5 1.6.5 2.1 1.2 1.2-1.4 1.6-2.2-1 .7 2.4-1.7 1.7-1.4 1.5-.5-1.8-2.4-2.3h-1.2l-1 .9-1.3-.7h-1.8l-1.6 1.9h-1.4l-1.2-1.7v-2.5l2-1.1-1.6-2.3v-1.6l-1.4-.5-2.4-1.6-1.4-.7-4.1-.3-2.1 2.7h-1.7l.3-2.1-1.6-1.7-.4-1.3-1.4-1.5-2.5-1.3-.7-1.6-1.7-2.4V170l-.8-.4.4-2.2 1-1-1.5-1 .3-1.8 2.7-1.2v-1h2.2l-.2-2.4-1.6-.5-1-1.4 1.2-1.3h1.4V154l1.3-1V152l1.6-.4 1 1.2 1.4-.2.7-1.6-.4-1.3 1.4-2.4.5-1.6 1.5-.3V144l-.8-2-1.7-1-1.6-1.7-.2-4.2-1.6-.8-1-1.6v-1.8l1.2-.3-.6-1.8-1.8-.5.3-1.7 1.9-.7v-2l.8-.8h2l.3-2.3h2.6l1-1-.6-2.3 1-1.9-1.3-2.1 2.4-1 1 1 1.4 2h1.8l2-.9.7-1.3 2.2.5 2.5-.3 2.3-3.2 3.4.5 3.5-4.2 2.6.3.1 1.1.7.7-.5 1.5 2.5 1.2.3 1.6 2.6-.5.8 2 1.7.7.1 1.5 1.3 1.4 1.6-.5h1.8l.3 1.3h1.2l.9 1.1-.7 2.4h1l.7-1.2.7.8v1.5l2.2.2zM124.7 164.5l-1.2-.6h0l-.4.6.7.9z"/>
    <path d="M210.3 163.9l-2-2-1.6-1.7.6-1.8 1.6-.5.5-1-1-.9v-2.4l-.6-.2-.7-1.8h-1.4l-1.2-1.8.4-2.1 1.5-2.2 1.9.2.6.7.6.3.3-1.3 2.2-.7 1.8-2-1.2-1.2 1.5-1 1.8.7.5-1.5v-1.5h2.2l1 1.1 1.1-1.1.3-1 2.4-.6-.8-.8-2.1-.8v-.8l2.4-.7 2.5-.7 1.3-1.3h1.6v-1.2h2.3l-1.3-1.4h2l.8.7v-2l.9-1-1-1.2.6-1.1 1.2 1.2h1.4V124l2.1.8 1-1.2 1.1-1.3h1.4l2.3-1.1 1.6.6h2.4l1.6-1.7 2 .2.8 1.3h2l1 1 1.7-.5h2.4l1.6-1.7 1.9-1 2.5-1h2.3l1.3 2.2v2.4l-2 1.9-1.8 1.8-2.4.2-3 1.3-2.5-1-1.3 1.3h-6.8L247 130h-3l-2.2 1.3.6 1.6-1.5.6-1.8-.2h-1.7l-.2 1.1-1.7-.5v1.8l-1.7 1.3-1.5 1.1v-1.7l-1.1 1.1.3 2h-1.2l-.8-.8v2.4l-.9-.9-1 1.1-1 1h-1.2l-1 1.3-1.2 2.2h-2l-1.7 1.4v1.9l-1.6.6-.6 2-1.3 1.4v2.5l-.7 1.8.9 2.6-.8 2.6 1 1.7.5 1.8-.5.6-1.7.8v-1.3l-1.5-1h0-1l-1.2-1.7z"/>
    <path d="M274.3 69.4h1.1V68l-1-.5h0l-.7.3.6.9z"/>
    <path d="M270.3 76.5l1 .5-.5 1.1.9.3h1.7l1.4-1.5 1-1-.3-1.6-1.3.1h0l-.5 1-2 .3z"/>
    <path d="M269.5 73.7v-1.3h-.8l-1 .6h0l-.5.4.8.9z"/>
    <path d="M263.8 76.4v1.7l1.4.2.3 1 1.7-.4 1-1.1.8-.9.5-1.3h-3 0l-1.2-1.4-.8.9z"/>
    <path d="M262.3 82.8l.4-1.3-1-.2h0l-.5.5v1z"/>
    <path d="M257.2 77.7l-1 1 .6.6 2-.4.6.7 1.7-.4.5-1.1 1.2.4-.7-1.5-1-1.1-1.6 1.2h0l-.5-.6h-1.8z"/>
    <path d="M269.5 64.4l-1.1-1h0l-.5 1 .8.8z"/>
    <path d="M266.7 68.5v1.2l1.2-.6-.7-1.6-.6-1.9h0-1.3v1.5z"/>
    <path d="M258.2 71.1l.4-1.2h0-1l-.3.3zM260.5 73.4l-.9-1.6h0l-.8.8.8.8zM261.2 68l-.9.2h0v1h1.1zM262 71l-.1-.1h0v.9h.9zM262.8 73h0l.4.4.7-.7zM264.9 68.7h-1 0v1.1l1 .1zM263 66.4h-.5 0l.5 1 .5-.5zM253.8 75v-2l-.8-1-.8 1.3h0l-.6.6 1 1z"/>
    <path d="M256 72.1l-1.2-.1h0l.4 1.1h.8z"/>
    <path d="M248.7 68L247 67l-1.3.7v1l-1.7-1.2-1.3.5.4 2 1.2-.5v1.3l1.3.4 1.2-1.2 1.6-.7 1.3.4h2l1.5-1.5-1.4-1.4 1-1-1.6-.9-.8.6h0l-.8.8v1z"/>
    <path d="M242.3 63.7l1 1 .3 1.1 2-.7.8.7 1.4-.6.5.6v-1.2l-.9-1h-.8l-.8-.3h0-1.7l-1-1z"/>
    <path d="M248.4 73.1l-1-1h0-.7l.3 1z"/>
    <path d="M248.9 75.8l-1-.9-.2-.7h0l-.7.7.5.6z"/>
    <path d="M255 63.8l-1.5-.2h0v1h.8z"/>
    <path d="M152.6 177.8l1.5-1.6-1.8-2.8-1.3-1.3h-2l-2.8 1-2.5-1.5-3.1 1.2-3.3-.5-.1 3.8-1.8 1.6.7 1.8-.9 1-3-1-1.1-2.5-2-2-.5-3.2-.6-4.9h-1.8l-1.8 2v1.9l-.2 2.4 1.3 1.4-.5 2.7-2.6 2-2.4-2.4-2.1-2.3-.6.8-.8 1.2-1.1-.7-.5.4-.8-1-.6.7v1.7l-.6 1.6-1.3.7-.5 1.2-.3 2.7 2 2.1-.8 2.2-1.7.6.2 1.5-.4 1.7-2 2.2-.9.2-.7 1-1.7 3.3.3 1-.8.9.5 3 1.2.8v1.3l1.7 1 .4 1 .7.5 1 1h1l1 .9.3 1.2 2.1.1 1.6.5.8.7 1.3.4.5 1.3 1.3 1.3.8.7v1l.9.4h1.8v-.7l.9.3h1.1v1.4l.7.7h.6v1l1.3.6.8.8 1.1-1.1.3-1 1.2.5.8 1.4-.9 1 1.2.7v.6h1l1 .5-.4.6.6 1 .7.7 1.2-1 .7.3.6 1 .4.4 1 1-.3 1.2 1 .5 1.3-.3-.1-.8.9.3h1.7l.2.8 1 .3 1-1.1 1-.9.9-1.5-1.2-1.3.8-.8 1.3-.9.2-1 1.6-1 1.4-1.4 1-.4 1.3-1.4-1-1v-1.4l-1.1.5-.7-.7h-1l-1.3.3-.6 1.4-.7-.3-1 1.5-.9-1-1-.4-1-.5-.2-1.9 1.2-.6-.2-1.2.5-.6.4-1 1.2-.4 1.5.4.3-1-.2-1.7-.8-.8.4-1.7 1.4-1v-1.5l.5-1.5-1.1-1.2-1.2-1.6v-1.4l-.2-1.4h1.3l1.5 1.1 1.3.5.9.9 1.8.4 1.5.9 1.7 1.8.3 1.7 1.2-.7 1.5-.5 1 .7 1.5.3 1.3 1h1l.6.8 1-1 .9-1.7-.8-.8-.3-1.5.7-1.5-.6-1-1.2-1.2-.4-1 1-1 .7-.8v-.7l.7-.8.6-1.6 1.2-1.2-1-1-2-1-.2.7-1.8.7-1-.4-1.2-1.5-1-1-.4-1.9-1.7-1.7-1-1.2-.5-2.3-.8-1.8-.8-1.1h0l-1.9 1.9-1.3 1.7z"/>
    <path d="M573.3 246.3l-.8.2-.5-1.6v-1.4l2.4.6 1.2.6.6 1.5 1.3 1.3 2.3.5.5 1.5 2.6 1.7h1.4l1 1.7 1 2.5 1.4 1.5 2.7 2.9 1.8.5 2.3.9 2.3 2 3.2 1.9 2 1.8 2.6 1.4 2.3 1.4 1.5 1.3 2.6 1-.4 1.3-1 .9-1.7.6h-1.3l.3 2-.3 1.4v1.1l1.5 2.5s1.5 1.7 1.2 2c-.3.3.1 3 .1 3l1.2 1.2 1.8 1.9 1.6 1h2.4l1.4 1.4h1.5l.8 1.8 2 .1 1.3-1.3 2.2 1.3 1.2 1.7s.5 1.2 0 1.2c-.4 0-2.9-1.3-2.9-1.3l-1 1.1h-2.4l-.7 2 .4 1.9 1.5 1.5 1.1 2.5-1.5 1.2-1.2-1.5-1.5-1.6-2.8-2.7v-1.8l-1.8-1.9-1.7-1.8-1.2-1.6-1.5-3-1.8-1.8-2-1.1-1.8-.6-1.6-3.4-3.4-4.8-2.7-2.9-2.3-2.3-2-2.9-1.3-2.2-3.5-1.6-2.7-1.2-1.7-.2-2.2-3.1v-1.5l-2.4-2.4-1.3-2.5-2.5-.9.6-1.8v-1.5l2.1.7.4-2-1.3-1.2v-.7l-1.2-1.3-1.7-.6z"/>
    <path d="M652 300v-1.5l.6-1.2v-1.8l-1.8.3h0l.3 2 .2 2z"/>
    <path d="M658.3 297h-1.2 0v.8l1.2.7z"/>
    <path d="M654.3 285.2l1-1-.2-2.2-1.6-.5-.4 2.5.6.6-.5 1.8.1 2.9h0l1.1.5.4-1.6z"/>
    <path d="M656.7 277.7l-.6-1h0l-.5.5.4 1.6z"/>
    <path d="M657.4 265.4l1.2-1.3.3 1.7-.2 1.9.3 2-.6 1.6-1.2-.3h0l.5-2.5-.7-1.5z"/>
    <path d="M659.7 253.6l-.4-1.6v-2.3l-1 .1h0v3.8z"/>
    <path d="M607.2 182s.9 2.2 1.4 2.7l2.8 2 3 1.6 4.6 1.4 2 .5 2 1.3 1.2 1.6 4 2.2 3.5 1.6 3.7 1.7 2 2h2l1.6 1.6 2 1h3l1.2 1.7v-2.2l-.6-3-1-4.6-.4-3.5-2-2-2.8-2.8-1.8-.8-1-4 .8-2v-1.9l2.3-.3v-1.3l-3-.8-1-1-1.8-.7-2.1-3.4-.8-4.3 1-2.5 1.9-1.2 1.2-.8-.7-2-2.1-1.8-3.6.5-1.6-1.6-2-.5-2.1-3.9-.7-2.6 2.1-.6.9-2.1-2-2.2h-1.8l-1.1 1.2-2.7-.7-2.8-2-.5-2.5-2.8-2.8-.7 1.6-1 1v1l.8 1.9h-3l-1.8-1.8-2.9-1.6-.3-2.4-.4-3.1-2-2.1-1.5-1.5-1.3-1.4-1.6-2.7 1.2-1.2V123h1.3l2-2-2-1v-2l-1.2-3.2h1.3l1.4 1.4 2 1v-1.7l-1.7-2.9V111l.8-3-1.2-1.3 2.3-3.3 1.3-3.3 2.7-.9 1.9 1 1.8-1.6-1.2-1.2-1.8-2.1-1-4.4v-3.2l-2-1.8-1.1-3.4-.5-3.5-1-2.7-.7-3-1.2 1.7-1.8.1-1.4-1.4-1.5.6-.5 2.8-.8 2.8-1.6 2.5s1 1 1 1.5c0 .4-1.1 3.3-1.1 3.3l-1 2.5-1.9 1-1.2-1.1-1.6.5-1.4 1.5-1.9.4-1.6 2.2-1.3-1.4-.6-1.8-.9-1.7-.6-2.3-1.3-.4-1.8 1.3-1.1 1.2-1.6-.7-2.5.4.6 1.6-1 1.3-1-.3-2.6.8v2l-1.1.8-.7 2.3-1.8-.1-2.1 1.6.8.8-1 1.1-1.8 1-1 2v1.9l.9.9 2.6.3.1 1.1.7.7-.5 1.5 2.5 1.2.3 1.6 2.6-.5.8 2 1.7.8.1 1.4c0 .4 1.3 1.4 1.3 1.4l1.6-.5h1.8l.3 1.4h1.2l.9 1-.7 2.4h1l.7-1.1.7.7v1.5l2.2.3 1-1.5h1l.2-1.3h-2.1l-1.8-1.9-1.8-1.9-1.3-1.2.6-1.7v-2.3l2.4-1.4 1.6-1.7.7.8-2 2v2.5l2.2 1.4 1.5 2 1.2 1.2 1.3.5h1.4l1.4 2.8 1.3 1.3V126.7l-.8 2.6.1 2.2 1.3 1 1.3 4.1 1 2.8 1 3.4.8 3.6 2 2.8 1.3 4 .6 3.5 1 3.3-.8.8-1 1 1 1.8-.7 1.7-.9 1v.8l2 .5 1.8 2.6.3 2.5 1.5 1.6v2.3l2.1 2.3 3.1 3.1z"/>
    <path d="M606 132l.7 1v1.7l1.5.6-.4-1.7-.6-1.4.6-2.1v-2.7l-1.7-.8-1.1.7h0v2.1l-.2 1.9z"/>
    <path d="M642.2 139.2h2.2l1.4-1.5-1.7-.5-1.8.7-1.6-.6h0l-1.3.4.6 1.5z"/>
    <path d="M646.6 210.9l.6 1.2-.2 1.7v2.2l.9 1 1-.6v-2.3l1-1-.8-2-1.3-1.2.1-1.7-.9-1h0l-.5 1.7-.9 1z"/>
    <path d="M652.5 223l-1.5-1h0v1.4l.9.5z"/>
    <path d="M648.8 133l.9-1-1.2.3h0l-1.2.9.6.7z"/>
    <path d="M601.5 73.3v-4l-.8-3.5-1.8-2.9.8-.8-2.5-1.7.7-1h2.2l1.4-3 2.1-1v-2.2l-1.5-1.6-.8-2-1.7 1.4-1.2-1-1.4.2-1 1.2h-2l-.5 1h-1.9V51h-2.3l-1.3.3-1.6-.1-.6 1.1-1.3 1.4h-2.3l-1.3 1v2l-1.4.6-1-1 1.7-2.1H579l-1.8.7.7-1.7 2.3-1h1.6l1.7-2.9-.5-2.5-.8-3.2-1.8-1.8-1.6-1.7-1 1v-2H576l-2.3.6-1.4-1.5v-1.5l-1.9-.3.7-.7 1-.4-.9-.8.2-1 1 .6 1.2 1h2l1.4-1.1 1.4 1 1.7-1.7v-2.8l-.8-1.7 1.8-2.7h2l1.6.6 2.3-.7 1.1-2.7 2.2-2.5 2.5-.2 1-2.8-1.9-.6v-.9h2.3l-.8-1.7V13l-1.1 1.6-1.2.3-1.4-2.2-2-2v1.1l-2.4-1-1.2 1.3-2-.4 2.5-1.6V7.8s.7-2 0-1.3c-.6.6-2.2.6-2.2.6l1.2-2.5-1.1-1.1-1.4-1.2s.7-2.5 0-1.9c-.6.7-2.4 1.2-2.4 1.2l-2 2.8h-.7l-2.5 1-1.5 1.5-1 1.5-.3 2-1.1-.1v1l1.7.4-2 1.5-.7 2 2 .5 2.9.2 2.5-.6v1.4l-2.5 1.4-1.4 1.5-2.2-1.7-2.5.7L566 17l-1.5.9-2.4 1-1.9 2.1-3.6 1.1-1.9 2.9-2.6 1-2.2 2.3-2.1 2.2-2.3 1.4-3.2 1.4-1.6 1.7-3.6 3.8-3.3 3.2-.8 3.2-1.8 2.7-.7 2 .7 1.9h-1.5l-1.7 1-.2 2.2-2 1-.5 2.1v1.2h2.2l.6 1.6 2.7-.5 3.6 1.7 1.1.2.7 1.7-.6 1.8-2 .5-2.4 1.1-1.7.7h-2.5l-1.5-1.7 1.5-1.5-2-2.1-1.1 1.1-1.2 2.2 1.5 2.2-.4 1.3 1 1.1-.6 2.7-2.7 2v2.1l-1.4 1.4h-1.5l-1 2v3.5l.8 1.3 2.6.9 2 .2.6 1.4 2 .8 1.6 2.8-2.2 1.8-1 2.6v2.2l-1.5 1v2.2l-1.2 2.1.8 2.2 1.7 1v2.5l2.1.3 2 1 2.2-.8h1.7l1.3 1.3 1.1 2.3h1.2l2.4-1 1 1 1.4 2h1.8l2-.8.7-1.4 2.2.5 2.5-.3 2.3-3.2 3.4.5 1.5-1.5 2-2.7-.8-1v-1.8l1-2 1.6-1 1-1-.7-.9.5-.5 1.6-1.1h1.8l.5-2 1.4-1v-2l2.5-.8 1.1.3.9-1.3-.6-1.6 2.5-.4 1.6.7 1-1.2 1.9-1.3 1.3.4.6 2.3.9 1.7.6 1.8 1.3 1.4 1.6-2.3 1.9-.3 1.5-1.5 1.5-.6 1.2 1.3 1.8-1.1 1-2.5 1.1-3.3-.9-1.5 1.6-2.5.8-2.8.5-2.8 1.5-.6 1.4 1.4 1.8-.1 1.2-1.7z"/>
    <path d="M523.9 19.5l-1.3 1.4.1 2.3-.6.6.3 2 1 1.5 1.2 2.6 1.6.4 1.2-1.2.8-1.6-1-1 1.5-2.2-.2-2.3v-2.7l-1.4-1.1h0l-.9-.3-.7.8z"/>
    <path d="M4.8 167.7l1.3.2 1.2 1.2v1.7l1 .3.2 1.3 1.5.3.4-1.2-.9-.9.7-.7.5.5 1.4 1.2v1.9L12 175l.9 1.5.8.5.3 2.2-.7 1.6-3.6 1.8-5.3-6.6-3.1-7.3h0l1.6.4 1.5-.4zM70.5 181.2l.2-1v-.5l.3-.4.9 2.2 1.3-1.3.7-.8.3.3v.9l-.5.6v.8l-1 .5h-.4l-.4.3h0l-1-.7-.7.2zM46.2 228.7h1.4l1 1 .4 1.4 1.5.1.5-.5.9.3 1.4 1 1.3-.8h1.5l2-.4 1.4.4.8 1.6 1 1H63l.7 1.3.7 1.2-.8 1.2-.6 1.1v1.7l-1.6 1-1.5-1-.5.6v1.2l-1.5.3-1.2-1.2-1-.6-1.8.5-1 .9-.9-.4-1.5 2-2.3-.8h-1.7l-1.5-.6-.3-1.6-1-1v-1.3l.8-.9v-1.6l.5-1.7-.9-.8.1-1h0l-1-1.7 1.4-.3zM81.9 206.2l-1.5-.6.4-1 .7-1.4-.5-1.6-.3-1.6-.9-.9-1.2-.4.7-1.4V196l-1.4-.6-.1-1.3-1.6-.2-.9 1-1.1-1.5.3-2.9-1-.2-1-1-1 .8-1.1.3-1.6-.7-1.7-.2h-2.5L64 188l-1 .4-.7.8-1.4-.1-1.7.1-.8.9v1.4l-.8.8.3.9 1.2.8-.5 1.6-1.5.7-1 1-1 .5v1.6l-.9.5-.8.8.9 1 .6 1.4 1 1h1.8l1 1 1.6-.2 1.2.8h2.3l1.2 1.3 1.4.1 1-.9H69l1.1-1.1h1.5l1.1.6.9.8.4 1.6h1.5l1 1.3h1.4l.2-.9 1 1 1.4.6 1.7.7h0l.8-.7.3-1.7z"/>
    <path d="M67 222.7v1.4h.6l.2 1.3h1.6l1 .6 1.3.8h1.6l1.1 1.1h1.8l1.5.9 1.3.4 1.3-1.2 2-1.3-.7-1.8v-1l1.1-1.3-.5-2 .7-1.3h1.5l.7-2.3 2-1V214l.6-1.9-1.5-.5-1.8.4-1.2-.5-1-.6s-1.2-.7-1.5-.7l-1.7-.7-.9-.9-.2 1h-1.4l-1-1.4H74s-.1-1.6-.4-1.6c-.3 0-.9-.8-.9-.8l-1.1-.6H70l-1 1.1h-1.9l-.9 1-1.4-.2-1.2-1.3h-2.3l-1.2-.8-1.6.2-1-1h-1.8l-1-1-.6-1.4-1.7 1.4-.1 1.4-1 1-.2 2.3-.6 1.3-.6 1.1h-1.5l-.6 1.9.1.7 1.5.8.4 2.2 1.3 1.4 1.4.8 1 1 2.2.6 1.6-.5 1.8.5v1.2l.9.8.8 1.7 1.1 1 .7 1.2.7-1h1.2l.8-1.2 1.7-.6z"/>
    <path d="M77 241.1l-.5-1v-1.5l-1-.4-.5-1.5 1.2-.9v-1.4l.8-1 .4-1.3 1.2-.6s-.4-1.3-.3-1.4l.7-.9-1.3-.4-1.5-.9h-1.8l-1-1.1h-1.7l-1.4-.8-.9-.6h-1.6l-.2-1.2-.5-.1v-1.4l-1.7.6-.8 1.3h-1.2l-.7.9-.6 1.8-1.9.8-1.4 1.5-.7 1.2 1.4.4.7 1.4 1.1 1.2H63l.7 1.3.7 1.2-1.4 2.3v1.7l1 1.6 1.3.3v1.2l-.4 1.3.4 1.4-.6 1.8.2 1.5 1.6-.3.3-1.2 1.3-.2.4.4h2l.5-.7 1.7.3 1 .4 1-.3.5-.5 1.2.2h1.3v-1.6l.7-.3.3-1.1.2-2.1-.9-.9-1-.4zm-5.2-5.6l-.7 1 .2 1.1H70l-.4-.4-.5-.4-.7.8h-1l.4-1.2v-2h.7l.7-1-.3-.5.7-.7 1-.2v.7l.3.7v.2l1 .4.8.8-.8.7z"/>
    <path d="M70.5 232l-1 .2-.7.7.3.5-.7 1h-.7v2l-.5 1.2h1l.8-.8.5.4.4.4h1.4l-.2-1.1.7-1 .8-.7-.8-.8-1-.4h0v-.2l-.4-.7z"/>
    <path d="M217.5 175l.2 1.3 1 .3.4 2.1 2 .2.7-1.7-1-1.7.2-1.9-1-2.5h0l-1.6.8-1.2.4z"/>
    <path d="M181.5 166l.7 2 1.5.6 1.5.6 1.3-1 1.7.3.8-2.1-1.3-1.8-.1-1.5-1.7-.6h0l-2.2.6-1.2 1.7z"/>
    <path d="M233.6 189.1l-.8 1.3-1 1.1-.7.7 1 1 .3.8.8.3v3.7h-1l-1.3-.7h-1.2l-2.1 1.9h-1.9l-.8 2.2-2.8-.5-.8 1.2-1.2 1.3-1.2.7-2.4.9-2 .5-2.4-1.3-1.3.3-1.4-1.3-2.8-1.1-2.9-2-2-.8-3.5-1.4-1.7-1.8-2.1-.2-3.3-2.2-1.7-1.8-2.6-1.1-2.5-2.3-2.4.3-1.7 1.2h-11l-1-.9-2-1-.2.7-1.8.7-1-.4-1.2-1.5-1-1-.4-1.9-1.7-1.7-1-1.2-.5-2.3-.8-1.8-.8-1.1 2.5-.6 2.1-3.2v-2.7l.9-1.9 2.7-1.4v-1.7l2.7-1.7v-2.7l-.5-2.7h1.9l.5 1.4 2.4 2.5 1.8 2.8v3.9l-.6 2-1 1-1.6-1.7-2.2-.6-3.4 1.2v2.9l.9 2.6v2.2l2.4.7 2.3 1 2.7-1.2v-2l2.7-.7 2.7 1.3-.4-1.7 4.1.7 2.2-.4 4 .6h2.4l1.2 2.2h1v-2l3.4-1.1h1.8l.8 2.8h-2l-.7 2-1.6.6 2.5 2.3h1.7l3.1-1.5 3 .6 3.3 3.4 1.2-1.1h2.2l2.8-1 1.1 1.2-.3 1.5-1.7 1.2v2l2 1.7.2-2 .9-1 2 .5v-1.7l2.1-.3.4-2.7-.3-3.1 2-1 1.6-.5 2 2 .8-.9 2.1 2.8 2.5 2.6 2 2 .5 1.1z"/>
    <path d="M278.7 171.8l.9-.8h1.3l1.3-1.1-1.2-1.2-1.1.3h0l-1.1 1-1.2 1z"/>
    <path d="M277.3 158.8l1.4.4-.4-.9-1.9-.4h0l-.9.8.6.9z"/>
    <path d="M273.1 162.8l-1.1-1h0l-.5 1.4.8.7z"/>
    <path d="M260.2 158.2l.2.7 1.8.5 1.6-.8 1 .1v-1l-1.6-.4.8-.9-.9-1.3-1 .4h-.4 0l-1 .7.3 1z"/>
    <path d="M230.7 200.9l.2-1.2.8-.5.5-1.2h1v-3.7l-.8-.3-.2-.8-1-1 1.6-1.8.9-1.3.8 1.8 2.5 2.6 1.7 2.7 1.8 2.5v2.2l1.5 2.4 2.1-1.3v-2.3l2.5-2.3-1.7-.5-1.2-2.9.4-3-2-1.5-1.1-2.4 1-1 2.1-1v-1.8l.5-2.7 1-1.3v-1.6l-1.4-.5.8-2.2 1.1-1.5 2.2-.8 2.2-1.1.8-.8 1.8-2 1.4-3 1-2.7 1.2-2.7 2-1 1.3 1.8h2.6l1.2 1.3h2.3l1 3.8-1.1 1-.5 4-3 3.2-.9 2.8 1.8 1.7-.6 3.7-.6 3-2 3.3-.8 4.7-1.2 4.1-.8 2.1.8 3 1.8 1.9-.3 1.7-2.3 1.9-.5 4-2.3.7-2.7 2.8-1.6 2.5-1.5.8-2.7-.5-1.6 1-1.7-1-1.1-1.2-1.6-.6v2.1l1.6 2.5 1.6.8 2 1.5h1.9l1.3 1.8h1.9s.8-1.5.3-2c-.4-.4 1.2-1 1.2-1h1.3l.7-.7 2.6-.8 2.1-1.2v-2.3l1-1 1.6-1.7 1.4-1.4.6-2.6-.5-2.3-.2-2 1.4-1.6 1.4-1.5h2.2l2.5-.3.7 2.2 1 1 1.3 3.4-1.7 1.8v4.2l2.2 2.2 2.4.6V217l-2.4-.7-.9-1v-1.2l-.2-2 1.7-.5.7-1.5-.7-2 .8-1.8-1.1-2.2-1.4-1.3-.8-.9-2.6-1-1.5-1.5-1.2 1.3-1.6.8-.9-1.2H262l-.3-2.1 1.3-1.3-.3-3.6 1.5-2.4.9-2.8 2.1-2.2-.7-2.4-.7-2.1.3-2.3-1.5-1.5 1.7-1.8 2.6-2.7h2.2l1.3-2.1.9-2.3-.8-1.9.8-1.6h1.7l-.6 2.3v3.1l-.4 2.9-1.9 2v4.7l2.2 1.7 1.3 1.1 1.6-1 1.7 1.7 1.8 1.7v-1.3l-.7-1.7-1.2-1.2-2-1v-.9l-1.5-1.6-.8-2.5 2.3-1.5 1 1.1 1.7 1.8 1.3-1.2-.4-1.5-.2-1.2 1.2-1.3.1 1.3h1l.5 1.2.8.9 1.4.3 1.5.9.4 1.4-1 1 .2 1.2-2 .3-1 1-.5.5.6 1.5.5-.6.7 1.3 2.2 1.4-.2 2.6v3.8h-2l-.9 1.3-1.6 1.6-1.9 1.5.1 2 1 1 .2 1.2 1.4 1.3 2 .4.2 1.4.7.7 1.3-1.1.6.6 1.3-1.2v2.1l1.6.3v1.7l1 2.6-.6 1.5h-.8l.9 1.7-.7 2-1.2 1.3-.3 1.3-1.5-.3v1.7l1 1 .3 2-1 1.7 1 1v1.6l2.4 1.4.9 1.9-1.5 1.4v1l.8 1.4v2l-1 .7 1.2 2.2h1.3l1.2 1.3 1 2 .2 2.5-1 1.1.5 2.3 2.4.6 1.2 1.2 1.3-1.2.4 2.6-.4 2.3.7 1.8-1.4 1.5-1.6 2-1 2 1.6 2.4v2.7l-1.6 1.6-.1 2.5-1 .9-2.4 2.6-2.3-2.9H289l-1.6.6-1.6-2.8-3-1-1.1 1-2.2-2.8-.8-2.3-2.2 1.5-2 1.1-.8 1.5H266l-1.6-1.7-2.3-1.2.8-2.1-2.9-1.2-1 1-1.7-1.7-2.6-.7-1.8.4-2.1-2.3H249l-1.6-2.6h-1.8l-3.7.4-.8-2.2.6-2.2-2.4-2.4v-2l-.6-3-2.5-2.6h-2.9l-1.2 1.3-1.6-1.7-1.4 1.5-2.9-.5-1.6-1.9 1.9-1.9-2.4-2.1-2.5-1.3-2.2 1-2.2-1-2.9.6-2-2.1-1.8-1.9-1-1 2-2 .7-2.7-.4-3 .2-3.6h2.7v-2.3l3.4-2 3.4-.8h3.6l.8-2.4h2l1.9-2 2.5-1.3-1.6-1.7 2-.8v-1.4l-2.2-1.1.2-.8z"/>
    <path d="M546.8 259.9l1.6-.7.8.9 1-1 .3-1.9-1-1.5-1.7.4h0l-1 1v1.3z"/>
    <path d="M515.7 273.2l-1.2-2.9v-2.2l-1.4-1.4 1.2-1.3.4-2.8-3-1.3h-2.3l-.3-1.5 1.7-.3-.9-1.8.5-3.3-2-.4-2-2.1 1.7-.4.2-2.6-.8-.8-.4-1.4.6-1.7-1.3-1.4 1.1-1.6-1-1v-2.3l2.2-1.2 1.5-.8 1.7.2 1.4-1.5 2-.8.2-1.9-1.2-1.3.7-1.8 2.4-.4 3.3-3.4-.2-3.8 2.3-.8V220l-2.2-2.4-.5-1.7-2.6-2.6-1.6-.4-.3-2.1.4-2.5-1.3-1.4 2-2.6V199l-1-1-.5-2-.9-1v-2.5l1.8-.4 1.6.4 2 1.2 2-1.1 1.7-.6 1.7-1.7 1.2-2.2h1.6l.9-.5.7.7.9-.3V186l-.1-3h1.7l2.1-2.6 4 .3 3.9 2.3 1.4.5v1.6l1.6 2.3-2 1.1v2.5l1.2 1.8 1.4-.1 1.6-2 1.8.1 1.3.7 1-1h1.2l2.4 2.4.5 1.8H554l-1.3 1.2.9 1.4.6.7-1.8 1.2H550l-2.4 2.4-1.6 1.6-1.7 3-1.8 1.9-1.8 3.7-.3 3.6 1.7 3.5-1.6 1.7-.5 3.5 1 2.5 1.4 1.5-1.2 2.2v7l-.7 2.7v3.7l1 1.2v5.6l-.9 3.7v3l-1.6 2.8v2.8l-.8 2.4 1 2.2h1.6l1.2-1.3h1.8l1.3-1.4 1.6-1.6 1 1.1 1.3.7v1.4l1 2 1.3 1.2 1-1.1v-1.8l-1.4-.6v-1.7l1.2-1.3v1l1.2 1 .7-.1.6.6v3.4l2.1-.9v-1l1.2-1.7.7-.7 1.2 1 .3-1.9-1-1-1-1.9-1.1-2.2 1.9-1 1.1-1.3 2.4-.5h2.7l2.3.2 1 1 3-.4c.5 0 2-.6 2-.6l1.3 1.3-1 1-.7.9-.7 1.2h3.8l.4 1.4 1.6 1.6 2-.2 1 1 1 2 .3 4.3 1.4 4.3 2.1 3.3 2.8 2.8 1 1 .5 2 2.2 2.1 1.4 2.7.6 1.5 2 3.1 1.6 1.7v4.6l-.7 4 1.2 4-1.7 1.4-1.8-1.3.5-1.1-.7-1.4h-1.5l-1.1-1.1-1.5-1.2-1.3.2-.7 3-2.2 1.8.4 1.5 2 .2.5 1.6 1.7-.2.7-1.3.8.2.8 2-.2 2.3-.6 1.5-2.6 1-.3 1.8 1.2.3v3.1l-1.6 2.2-2.2.4-.2.7-2.2-.4-.5.8H583l-.4-.4-1.5-.5-1.9 2.7-.2 2 1.1 1.3v.9l-2 .3-.6-2.4-2.1-2.3 1.6-1.7v-2.4l-1.3-1.4-1.6-1.6-.4-1.4.2-1.3-.7-.7.2-1.8-1.8.8-2.2.3-1 2-3 .7-1.3 2-2.1-2.7-1.7-.8-1.6.7-.8.5-1.8-.4-1.8.3.2 2.3s-.7 1.2-1 1c-.2-.3-1 1.9-1 1.9l-1.2-.3v-2.7l-1.3-1-.9-.1-.2-1.6-2-1.5-.4-1.7-2.3-.3-.9 1-1.2-1.9h-1l-1.2-1.2-.4-4.4 1-1.9-1.3-2 1.5-1.8v-1.5l1.9-1.7.2-3.2s1.9-2 1.9-2.2l-.1-1.4-2.2-2.3.9-1.2h1.8l3.5-1.2.8-2.7-2-1.4-.5-3.4-1.9-1.9-2 .2-1 2.1-1.2 1.1-2 .4-.6 1.8.5 2-.7.8-2 .7-1 1.5-1 1.5s-1.2-.2-1.3 0c-.2 0-1.3 1.1-1.3 1.1l-3-4.1-1.6.6-1 .8-2.5-.4-1.4-1.7.8-1.8 1.3-.7v-1.5l-1.2-2 .6-1.5h.8v-3.3l1.3-1.9v-1.5l.6-1.9-1.9-1.1-1.9.4-1.4 1.5-1.7.2-1.2 1.6-1.4.7-.8-.5z"/>
    <path d="M27.3 316.4l-.8-1.2-1.2-.5-1.1-1.9-.9-.9 1.5-1.2-.4-1.7 1.2-.3-.8-1-2.9-3-1.2.7-1.1-1.2v-1l.4-1.5-1.4-.7-1 1-1.3-1.2-1.1-.9-1.3-.2-.4 1.5.8 1.6-.3 2.7-1.6-.5h-1.3l-2.4.1-1.8.8-.7 1.6-1.6-.5-1.7-2.2-1.3.2-1.2 1.2.6 2.2-.7 2 .9 1.7 1.2 1.2-.2 3.3 1 1.7 1 1.8.4 3.8-.4 5 .9 2.6 1.4-.2 1 1.5.9 1.1 1.1.3 1.3-1.4 1.5-.2 1.1-1.1h1l.6 1.3 1 1.4h2l1.6-2 .6-1.2-.4-1.6 1-.3 1.8-1.4-1-1 .9-1.5-.7-1.3-.7-.7.8-1.3v-1.4l.8-1 .9.4.5.9 1.5-.2 1-1-.2-2.2 1-1zm-11 6v2.4l-.5 1.2-.5-1.4-1 .4-1 1-1 1.7-1.2 1.2-.8.6v.9l-1.1.2-.5.5-.6-1.2-1.6-2 1-1 .7.4h2.4l.2-.9-.4-1v-1.9h1l.7-1.2h1.1l.7-.7-.6-1.5-1.2-.7-.3.4h-1l-.8-.9-.9-.9-.6-.6-.5-1v-1l.6-.3.8.7.4.5.7 1 1.3.5.5-.3 1.4.4.3 1.2 1 .6.6.6.7.5v1.6h0z"/>
    <path d="M28.4 345.5l-1.4.3-2-2-.4-1.3-1.6-.4-1.7-.5.6-1.2-.5-1.2-.9-.8.6-1h1.8l-.6-1-.3-1.3-1.1-.8v-1.7l-1.3-.4.6-1.2-.4-1.6 1-.3 1.8-1.4-1-1 .9-1.5-.7-1.3-.7-.7.8-1.3v-1.4l.8-1 .9.4.5.9 1.5-.2 1-1h1l.8.9 1.2.6.5 1.4h1l1-.3.4 1.4.9 1 1.9-.4 1.2.5.2 1.6 1 1.2.3 1.3 1 1 .7 2-.7 1.5.8 1.6 1 1.1.9 1.1v1.3l1.1 1.2.3 1.7.9 1.4v2.5l-1.7 1-1.6.6-1.4-.5-.8.9.5.9-.7.7H37v1l1 .5-.6 1.7h-1.7l-.8-.8v-.8l-.8.1-.8 1.1-.9.2-.4-1.9-2-1.9h0l.4-.9-1.2-.8z"/>
    <path d="M42.5 358.1l-1 .4-2 1.1-1.9 2.3-.6 2.6-1.8-1-1 .8-1.8-.2-1.2 1-1.8.2.6-1.9-1.6-1.7 1.6-1.2 1.3-2 1-2.3.4-1.7L31 353l-.7-1.4h2.1l1.1-.3.6-.9h.8v.7l.8.8h1.7l1.7 1.9h0l1 1.5 2.2.2zM19.9 342.2l1.4-.6 1.7.5 1.6.4.4 1.3 2 2 1.4-.3.8.8 1.2.8-.4 1-.8.6v1.3l-.8.8-2 .2-.6.6-.9-.9h-1.5l-1 .6-.8-.2-1.5.5-1.4-1.4.4-2.2-1.8-1.6-1-2.5h0l1.3-.5 1.2-1.3zM68 290.3l1.3.8v1.3h2.2l2.5 2.4.3 3-2 2 1.5 1.4.8-.8 1.5.6.4 2.2 1 1H79l.3 1.6 1.3 1.4v2.2L80 311l-1.3 1h-2.1l-1.6 1.8-1.4 1.4v2l-1.8.7h-2l-1.3 1.4-.8-2.3-1.2-1.3-1.5 1h-2.1l-1.1-1.2-2.5.7-.8 2-2-.5-1-1.1v-1.4l-1-.4-.8 2.2-1.1.4-1-1-1.4.4-1.1-1.2-1.9 1.8-2.3-2.2-.5-2 .7-1.8v-2l-2.4-1.7 1.3-1.4V305l1.8-.8 1.4 1.5 2.2-.4 1.5-3-1-3.9 2.6-2.6.8-2.3-1.4-2.4-.2-1.5 2.5-2.5.8-2.7h3l1.5-1.3 1.5.3.4 1.2 1.6 1h2.2l-.2 1.8.7 2.6z"/>
    <path d="M44.3 313.3l.7-1.8v-2l-2.4-1.7 1.3-1.4V305l1.8-.8 1.4 1.5 2.2-.4 1.5-3-1-3.9 2.6-2.6.8-2.3-1.4-2.4-.2-1.5H49l-1 1h-1.5l-.7-1h-1.8v-1.4l-.8-.9-.9 1.1-.7 1.9-4 .5.1 1.8-1.4-.2-1.5 1.5.4 2.4-1.6 1-2.3 2.4-2.6-2.8L27 295l-1.8.8-2-.9-2.3 1.1-1.6 1.8 1.3.4 1.1 1.2 1.8.4 1.3 1-.4 2-1.8-.8-2.5-.3-.3 1.4-.1 1.1 1.1 1.2 1.2-.7 3.7 4-1.2.3.4 1.7-1.5 1.2.9 1 1.1 1.8 1.2.5.8 1.2-1 1 .2 2.2h1.2l.7.9 1.4-1.2 1 .8h2l.7-.8v-1h1.3l.5 1.5v1.4l1 1 1.3.4.4 2 .4 1.3.8.8 1.1.5.6-.5 1.2.3 2.2-2.4h2.5L49 323l1-2.3v-1.6l-1.6.9-1.3-.1h0v-2.4l-2.3-2.2zM68.4 319.4l-.8-2.3-1.2-1.3-1.5 1h-2.1l-1.1-1.2-2.5.7-.8 2 .6 2.2 1.3.8-.7 3.5.2 2.1 1 1.4h2.4l-.6 2.8-1.2.7-.7 2.7 1 1.1-.7 1.8-2.2-.2-.2 1.4H58l-.2-.8-1.2-.6-.9.9.8 1v1.4l.7.7v1l-3.5 2.5.3.9h1.5l1.1.8 2 .4.7.7 1.6.5s-.3.8.8.8l2.2-.2h3.6l1.8-.2 1.1-1L69 346l-1-2-.1-2 1.5.3 1.1 1.2 1.1-1.2v-3l-.6-3.7.6-2.9-1.3-1.3-2-2-1.4-.8 1.4-1.5.6-2.8-1.5-1.6-.7-2.1 1.7-1.2zM38.7 248.5l1.1.4.8.7v1.8l1.2.3.3 1 1.2.6.3 2.4 1.1 2 .4 2.5 1.2.3.8.8 1.3-1h1.4l1-1-.6-1.1 2-1.3.7-1.5 1.7-.6-.8-2.5.8-.7-2-1.3-1.3-2.8-.8-3.8-2.3-1h-1.7l-1.5-.5-.7.7-.3 1.4-.6.6-.9-1h-1.1l-1 .4.3 1-.3 1h0-1.1l-1.2 1.2z"/>
    <path d="M58.2 255.9l-.6 1.2h-1.2l-1.1-1.6-.7-.7-1.7.6-.6 1.5-2.1 1.3.5 1.1-1 1h-1.3l-1.3 1v2l1.4.1 1.5 1 1.8.3.8 1.7 2 .7-.4 2 1.3 1.3 1.6.1 1.6 2.4 1.3-1H61l.4-1.8-1.2-1.2.3-1.6-.6-1 .3-1 1.5-.6 1.7-1.7 2.2-1.7-.4-2.9-1.5-1.4-1.3.9-.7-1.2.5-1-.5-1h0l-1.5.2-.6 1z"/>
    <path d="M65 249.4l-.9 1.5v1.3l-1.1.9-1.2 1.7h-1.5l-.6 1s-1.5-.3-1.5 0c0 .4-.6 1.3-.6 1.3h-1.2l-1.1-1.6-.7-.7-.8-2.5.8-1-2-1-1.3-2.8-.8-3.8 1.5-2.1 1 .4.9-1 1.8-.4 1 .6 1.2 1.2 1.5-.3V241l.5-.6 1.5 1 1.6-1 1 1.6 1.3.3v1.2l-.4 1.3.4 1.4-.6 1.8.2 1.5z"/>
    <path d="M62.5 257.9l-.7-1.2.5-1-.5-1 1.2-1.6 1.1-1V251l.8-1.5 1.6-.3.3-1.2 1.3-.2.4.4h2l.5-.7 1.7.3 1 .4 1-.3.5-.5 1.2.2h1.3l1 .8-.4 1.3 1.6.6.3 1.4 1.1.3 1.4 2.3v2l1 .7.7.8v1l.4 1-1 1-1.3.4-.7.7-1 1h-1.2v.9l-1 1-1.2.8-1-.5-1.2-1.3h-1l-1.2-1.2-1.2 1.4-2-.3-.6-1.8-2-.6-1.5.1h0l-.4-2.9-1.5-1.4z"/>
    <path d="M68.5 280.6l1.9-1 2.1-1.3.6-1.2h1.8l.2-3.4-.9-1.6.4-3-.4-1.6 1-1 1.2-1.5-1.2-1.3h-1l-1.2-1.2-1.2 1.4-2-.3-.6-1.8-2-.6-1.5.1-2.2 1.7-1.7 1.7-1.5.5-.3 1.2.6.9-.3 1.6 1.2 1.2-.4 1.7H60l-1.3 1 1 1-.5 1.7 1.2 1.3 2 .8.7 1.5 1.2 1.2.7 2.2h0l1.5-.7 1-.1zM88.4 262.5l1 1v2.1l1.3 1.4.6 1.8 1.7.5.8-1.3h2.5l.6-.6 1.7-.2-.2 1.4.7.8h1.1l.6 1.3-1 1.6.5 1.2-.9.9-.3 1.6-2.7.4-1-1.2-1.7 1.3-1.5-.2-1.4-1.4-1.3-1.4h-2.2l-.5.6-2.2-2v-2l-1.7-1.8h-1.3l-1.8-.8-1-1-1.2.4-.2-1.4 1.3-.8.9-1v-.9h1.2l1.7-1.7 1.2-.3 1-1h0l1.2 1.1h2z"/>
    <path d="M78.8 266.5l1 1 1.8.8H83l1.7 1.7v2.1l2.2 2 .5-.6h2.2l2.7 2.8 1.5.2 1 1.6v2.7l-1 1.1v1.5l.8.8-.4 1.2-.8.4-1 2-1.3 1.9-1.2-1.6-1.6.4h-1.3l-2.2-1.2-2.5-1-1.4-1-.6-2-2.2.1-1.6-1.5-1.2-.5-1-1-.1-1.3-1.6-.8.6-1.2h1.8l.2-3.4-.9-1.6.4-3-.4-1.6 2.2-2.5h0l1 .5.2 1.4z"/>
    <path d="M96.9 292.8L98 294l1 2v2l2.2.6.6 3 2 2-.5 2.3 1.6 1.6.7 1.2-.1 1.2-2.6-.5-1.3 1.4-2.5.9-2-1.2h-2.3l-1 1.6H89.1l-.6 1.2-1.3 1.5-.2 2-2.6-.4-1.6-1.6v-2.2l.7-2.2-1.1-1.1h-1.8v-2.2l-1.4-1.4-.3-1.6h-1.5l-1-1-.4-2.2-1.5-.6-.8.8-1.4-1.4 1.9-2-.3-3-2.5-2.5h-2.2v-1.2l-1.4-.8-2.3-.3-.7-2.6.2-1.9.7-.8-.8-2.2 1.5-.7 1-.1 1-1 1.9-1.1 2.1-1.3 1.6.8.1 1.3 1 1 1.2.5 1.6 1.5h2.2l.6 1.9 1.4 1 2.5 1 2.2 1.2h1.3l1.6-.4 1.2 1.6h0l.8 1.7 1.4 1.4z"/>
    <path d="M105.2 276.7l1.7.8 1.6 1.7 1.5 1.4 1.6-.7.9.9.6 2.6 1.5 1.6.6 1.3-1.5 2.4-2 1-1 .9-1.5-2.3-2.2-1-1 1.1-2-2.1-1.4 1.4-1.8-.5-1.4 1.4v2.5l1 1-.4 1.7-1.9.3-1.2-1.3h-3.7l-1.4-1.4-.8-1.7 1.3-2 1-1.9.8-.4.4-1.2-.8-.8v-1.5l1-1V278l-1-1.6 1.7-1.3 1 1.2 2.7-.4.3-1.6.9-1h0l2.8 2v1.9z"/>
    <path d="M120.8 288h-1.7l-1.2 1.2-2.7-2.9-1.5 2.4-2 1-1 .9-1.5-2.3-2.2-1-1 1.1-2-2.1-1.4 1.4-1.8-.5-1.4 1.4v2.5l1 1-.4 1.7-1.9.3 1 2v2l2.2.6.6 3 2 2-.5 2.3 1.6 1.6.7 1.2h3.7l1.1-2.3 2-1.5 1.2.3.7-1.4 2.9-.6 1.4-3.5 2.5-1.4 1.8-1.9.7-3h0l-.8-1.8.6-1.4zM183.3 300.1l1.6.7 1-.4 1.5 2.5 2.5-2h2.3l.9 1.2-1.3 2.3 1.8 2.7 1.3.4v2.5l1.7.3 1.2 1.2h1.9l.6 1.5 1.5.2-.4 2 4.2 2.7.3 3.3-1.3 1.9H202l-2.4.6-1.9-1-2.3.4h-2.9l-2.7-1.5h-1.1l-1.2 1.3-2.2.4-2-1h-1.8l-2.4-.9-3.6.2.5-1.6 1.6-1.6-.9-2.2h-2l-.3-1H173l-1.2-1.4.3-1.5h1.4l1-1-.6-2.1 1.1-1h1.8l1-1.7-.3-2.8v-2.4h0l2.7-2 1.7.8zM159.3 294l-2.5-1.8-1.4-2-1.2.6-1.3-.5-.9-3-1.7-.3-1-2h-2l-2.3-1.8V282l-1.3-.5-1.1 1.1-4.1 1.3-.7.7.9 1.4v1.4l-2.2 1.8h-1.6l-1.2.6-.7-.7-1 .6.3 1.5v1l.7.7-.9.9-1.3 1.3h-1.2l-.3 1.1-.8 1.3-1.3.5.5 1v2.8l.7.9-.6 3 1.2.7 1.4 1.5 1 2.4v2.4l.6 1.5-.6 1.5v2.1l-.4 1.1 1.2.7 1.1-1.1h1.8l.7 1.2-.7 1.6-1.7.8.4.8 1.1.3-.3 2.1-.7.7.4 1.7h1l.2 1 1.3 1.3 1.3-.6.9-1 1.1.6.4 1 1.2 1 1.3.3 1.3-1 1-2.2.6-1.2 1.7-.8.2-1.6 1.5-2.7h1.1v-1.9l1.4-2v-1.2l2.2-2.2 1.6-.6v-.8l1.8-.2.8 1.1h1.2v-2.1l-.7-2.4-2.6-.8-1.2.7-2.6-.2-1.3-2.3-.4-3-1-1-.4-2 2.3-1.9 1.6.5 1.7 1 1.2 1.2v1.5l2.2.8 1.4-1.5 2.4-.6v-1.3l1.3-2.4.5-1.7-.4-1.9h0L162 296l-1.2-1.9zM86.2 211.5l-1.8.4-2.2-1 .8-.8.3-1.7-1.4-2.2-1.5-.6 1.1-2.4 1.2-1.1 2 .3.6-1 1.4-.4 1.4-1.8.5-1.5 1-1.8 2.4-1.4 1.6-2.4 1.1.7 2-1.1 1.7-.6 1.8.3 1.5.7 1.8-.3 1.4.8v1l1.6 1.7-1.7 3.4.3 1-.8.9.5 3 1.2.8v1.3l1.7 1 .4 1 .7.5 1 1h1l1 .9.3 1.2 2.1.1 1.6.5.8.7 1.3.4.5 1.3 1.3 1.3.8.7v1l.9.4h1.8v-.7l.9.3h1.1v1.4l.7.7h.6v1l1.3.6.8.8 1.1-1.1.3-1 1.2.5.8 1.4-.9 1 1.2.7v.6h1l1 .5-.4.6 1.3 1.7-2.3 2.4-1.5 1.5-2-1-1 1.1 2.2 2.6-1.4.7v2l-.7.8-2.5-2.3-1.3 2.1-2.3-.6-1 1-1.5-2.1-2-1.3-1.9-.8-.7-2.1-2.1-2.2-2.7-.5-1.4-3.1-2.2 1-2.3-1-2.6.7-2.3 1-2.5-2.6v-4.3l-2-2-1 1-2.7-1.9-1.1-1.2-2 .2-1.3.3h0v-2.2l.6-1.9z"/>
    <path d="M90.4 215.6l1 1.2 2.7 1.9 1-1 2 2v4.3l2.6 2.6v2h-2.8l-.7 1.6h-1.4l-2 2.2h-1.3l-.6 1.5-2.1-.5-1-1h-2.4l-1.5 1.5H82l-.9 1-1.2-1.4-1.2-1-.2-1-.3-1.4.7-.9 1.3-1.2 2-1.3-.7-1.8v-1l1.1-1.3-.5-1.9.7-1.4h1.5l.7-2.3h0l2-1 1.3-.2z"/>
    <path d="M124.7 236.6l-2.3-.6-1 1-1.5-2.1-3.9-2.1-.7-2.1-2.1-2.2-2.7-.5-1.4-3.1-2.2 1-2.3-1-2.6.7-2.3 1v2h-2.8l-.7 1.6h-1.4l-2 2.2h-1.3l-.6 1.5 1.4 1.5h1.9l1 1 1.4-1.6.8.2.7 2 2.3 1.5h1.4v2.5l2 1.1v2l2.6.6 3.2-.9 1.2-1.2h1.9l.7 1.8 1.2 1.2h2l.7.8 1.7-1.8 2.5-.9 1.1 1.1 1.3-1.4h3l.3-5.1h0l1.3-1.5-2.5-2.3z"/>
    <path d="M88.8 233.4l2.1.5 1.4 1.5h1.9l1 1 1.4-1.6.8.2.7 2 2.3 1.5h1.4v2.5l2 1.1v2h-2l-1 2.2h-2l-1.5-1.5L96 246l-.5 2.4-1.4 1.3-2.7.4-2.3.8.9-3.5 1.1-2.9-2.8-2.9-1.6-1.6-2.6-1v-1.5l.9-1.7-1.1-1.9h0l1.5-1.5h2.4z"/>
    <path d="M85 235.8l-1 1.7v1.5l2.7 1 1.6 1.6 2.8 2.9-1.1 2.9-1 3.5-2 .3-1.4 1.4-1.7.4-1.2 1.2-1.4-2.3-1.1-.3-.3-1.4-1.6-.6.4-1.3-1-.8v-1.6l.7-.3.3-1.1.2-2.1-.9-.9-1-.4-.5-1v-1.5l-1-.4-.5-1.5 1.2-.9v-1.4l.8-1 .4-1.3 1.2-.6.2 1 1.2 1 1.2 1.3h0l.9-.9h1.8z"/>
    <path d="M85.6 252.6l1.3-1.4 2.2-.3 2.3-.8 2.7-.4 1.4-1.3.5-2.4 1.3-1.2 1.4 1.5h2.2l.8-2.2h2.2l2.5.6 3.2-.9 1.2-1.2h1.9l.7 1.8 1.2 1.2h2l.7.8 2.3 1.7 2.7 2.8-1.7 1.7-1.3 1.4-2.2-1.4-1.8.4-1.3 1.3-1.5 2.2-2.9-1.8-1.3 1.4H106l.2 2.4-1.1 1.1 1 2-3 1.8v2.7l-2 1.7-1 1.6h-1l-.8-.8.2-1.4-1.7.1-.6.6h-2.5l-.8 1.4-1.7-.5-.6-1.8-1.3-1.4v-2l-1-1.1-.5-1.6h-2l-1.1-1.2-.4-1v-1l-1.7-1.5h0v-2l1.2-1.2z"/>
    <path d="M103.1 266v-2.6l3-1.9 2 1h3.8l.3 2 1.2 1.3-.5 1.7 1.2 2.3-2.6.7-2.4 1.4v2.7l-2 .8-2-.8-2 .8-2.8-2-.5-1.1 1-1.6h0l-.6-1.3 1-1.6zM117 252.6l2.3 1.4 3-3.1-2.7-2.8-2.3-1.7 1.7-1.8 2.5-.9 1.1 1.1 1.3-1.4h3l.3-5.1 1.3-1.5.7-.8v-2l1.4-.7-2.3-2.6 1.1-1 2 1 3.8-4 1.2-1 .7.3 2 2.4-.3 1.2 1 .5.1 1.7-1.3 1.4v2.2l-2 .4v1.5l-1.4 1.4v1.7l1.1 1.1v1.7l.5 1.7-.7 1.5.8.8 1.2-1.5.7-2.3 1.9-.4 2 1 1.1 1.2 1.7-1.7.9 1 .5 1.2 1.6-.2 1-1h1.7l1 1 1.9 1 1.4 1.4 1.2 1-.3 2-1.8 1.5-1.6.7-2 2v1.7l1.1 1.1-.5 1.8v1.8l-2.4 1.6h-1.8l-.1-2.2H145l-2.5-2.4-2 1.4-1.1 2.1-.6 2-1.3 1.3h-1.8l-1-1-2 2v3.2l-1.8 1.8-1.3 1.4-1 2.5-1.7-2.1-.5-2.7v-1.8l-.6-1.6v-3.5l-1.8-1-.7-2.6-2.3-.5-1.8-1-.7 1.3-1.3-1.2-2 1.1-1.6-1.1-1.2-2h0l1.5-2.2 1.3-1.3z"/>
    <path d="M113.7 258.5l1.7 1.1 2-1.1 1.2 1.2.7-1.3 1.8 1 2.3.5.7 2.6 1.8 1v3.5l.6 1.6-1.9 1.1-1.3-1.3H121l-1-1-2.5 1.4-3.4 1-1.2-2.3.5-1.7-1.2-1.3-.3-2H108l-1.8-1-1-1.9 1-1.1-.1-2.5 2.2.1h0l1.3-1.4 3 1.8z"/>
    <path d="M136.5 289h-1.6l-1.2.7-.7-.7-1 .6.3 1.5v1l.7.7-2.2 2.2h-1.2l-1.1 2.4-1.3.5-1.2-1.3 1.2-1.3-1.8-1.8h-1.7l-.8-1.8.6-1.4-2.7-2.4h-1.7l-1.2 1.3-2.7-2.9-.6-1.3-1.5-1.6-.6-2.6-.9-.9-1.6.7-3.1-3.1-1.7-.8-2.1.6v-1.9l2-.8 2 .8 2-.8V272l2.4-1.4 2.6-.7 3.4-1 2.5-1.5 1 1h2.3l1.3 1.4 1.9-1v1.7l.5 2.7 1.8 2 2.2.3 1 1.5 1.8.9.7 1h1.3l.2 2 1.4 1.2-1.4.9.1 1 1.7.6h0l.9 1.4v1.4z"/>
    <path d="M134.7 264.2l1 1.1h1.9l1.3-1.4.6-1.9 1.2-2.1 2-1.4 2.4 2.5 2.2-.1v2.2h2l-.5 2.4-.1 2.8-1.3 2.4-.4 2.7-1.2 2.8-3.4 1.8v1.2l1.3 2.2-1.1 1.1-4.1 1.3-.7.7-1.7-.7v-1l1.3-.8-1.4-1.1-.2-2h-1.3l-.7-1.1-1.8-1-1-1.4-2.2-.2 1-2.5h0l3-3.2v-3.2zM225.7 199.3l-.8 2-2.8-.4-.8 1.2-1.2 1.3-1.2.7-2.4.9-2 .5-2.4-1.3-1.3.3-1.4-1.3-2.8-1.1-2.9-2-2-.8-3.5-1.4-1.7-1.8-2.1-.2-3.3-2.2-1.7-1.8-2.6-1.1-2.5-2.3-2.4.3-1.7 1.2h-11l-1.2 1.3-.6 1.6-.7.8v.7l-.8.8-1 1 .5 1 1.2 1.2.6 1-.7 1.5.3 1.5.8.8-1 1.7-1 1-.6-.7h-1l-1.2-1.1-1.4-.3-1.1-.7-1.5.5-1.2.7-.3-1.7-1.7-1.8-1.5-1-1.8-.3-1-1-1.2-.4-1.5-1.1h-1.3l.2 1.4v1.4l1.1 1.6 1.2 1.2-.5 1.5v1.6l-1.4 1-.4 1.6.8.8.2 1.7-.3 1-1.5-.4-1.2.4-.4 1-.5.6.2 1.2-1.2.6.1 2 1 .4 1.1.4 1 1 .9-1.5.7.3.6-1.4 1.3-.3h1l.7.7 1-.5.2 1.4.9 1-1.4 1.4-.9.4-1.4 1.4-1.6 1-.2 1-1.3.9-.8.8 1.2 1.3-1 1.5-1 .9-.9 1-1-.2-.2-.8h-1.7l-1-.3.2.8-1.4.3.2 1.7-1.3 1.4v2.2l-2 .4v1.5l-1.4 1.4v1.7l1.1 1.1v1.7l.5 1.7-.7 1.5.8.8 1.2-1.5.7-2.3 1.9-.4 2 1 1.1 1.2 1.7-1.7.9 1 .5 1.2 1.6-.2 1-1h1.7l1.6-.7v-1.3l-1-1.1 1-2 2 1.2.8-.8.8.8 1-1 1.4.4.5 1-.2 1.3 1.1 1.4 1.4-.5 2.3 1 1.5 1.7 1.6-1 2 .8 1-1.1 1.1.3.8.8 1-.3.7-1.4h1l2.5 1.7 2.4 1.3 2.7 1 3.7.6.5-1.5 1-1 .4-2 2.6-2.7V240l.9-1.7-.4-1.9 1.4-2.8 2.2-1.4.2-2 2.6-1.6-.4-2.4 1-1.9 2.1-2.2 1.6-1.7 1.4.5v1.7l1.8-.3 2-2 2-1 1.1-1.4 2-.3h2.8v-2.3l3.4-2 3.4-.8h3.6l.7-2.4h2l2-2 2.5-1.3-1.6-1.7 2-.8v-1.4l-2.2-1.1.3-2 .9-.5.4-1.2-1.2-.7h0-1.2l-2.1 1.9z"/>
    <path d="M148.7 268.3l-1.3 2.4-.4 2.7-1.2 2.8-3.4 1.8v1.2l1.3 2.2 1.3.5v1.3l2.2 1.8h2.2l1 2 1.6.3.9 3 1.3.5 1.2-.5 1.4-1.6.9-.9v-1.9l.7-1.5.6.7h2l1.8-1 .5-2 1.1-1.9h1.5l1.2 2 .8-.8 1.2-1.2-.9-.9v-1l1.9-1.4 1.8.5 1.3-1.2 1.3-1.3-1.1-1.2v-.8l1-1.1.8-2.5-1.4-2.2v-2.8l1.8-1.6h1.8l1.4-1.5 1.6-2.4 2.2-2 1.1-3v-2.3l2.2-1.1v-1.8l-3.7-.5-2.7-1.1-2.4-1.3-2.4-1.7h-1.1l-.7 1.4-1 .3-.8-.8-1-.3-1.1 1-2-.7-1.6 1-1.5-1.6-2.3-1-1.4.4-1.1-1.4.2-1.4-.5-.9-1.4-.5-1 1-.8-.7-.7.8-2.2-1.2-1 2 1.1 1v1.4l-1.6.7 1 1 1.9 1 1.4 1.4 1.2 1-.3 2-1.8 1.5-1.6.7-2 2v1.7l1.1 1.1-.5 1.8v1.8h0l-2.4 1.6-.4 2.4zM407.1 374.6h-3l-2.5 2.6-2.7.6-2.7.8-3.8-.3-2.6-1.2-1.6-1.7-1.6-3.3-2-2-2.7-1.2h-2.6l-3 .9-2.1-2.2H370l-2.4-1.9-1.2 1.3-.2-2-1-1.1-.4-1.9 1.2-1.2V359l1.2-1.3 2.8-2.8.7-.8 1-1 1.5 1-.4 1.4 2 1 1.2 1.2 2.6.8 1.2 1.2 1.4.7 1.5 1.6 3.4-.7 1.3 1.4 1.6 1.4h1.6v1.5l1.2 2h3.1l.5 2 2.4-1.4h1.8v-3.2l2.4-2.6 2.9-3.5 1.4-3.8 3.8-4 4.2-5.2.7-7.8 1.5-5.2-2.3-.7-1.2-6-1-4.8.8-1.6 1-1.1-1.8-1.4-1.7-.5-.6-3 3.3-2.5h1.7v-2.3l1.6-.7 2.3.8 2.3-.9V306l1.7-1.3.9 1h2.7l1.6-1.1 1 1 3.3.7 1.3-1.4 1.5.8 2-2.1h1.7v-4.4l2-1 1.1-2.5 2 .5 1 1-2.4 2.2v3l2 1 .8 2.7 1.3 1.5.8 2.8 1.8 2 1.7-.6 2.3 1.2 1.7 1.7.6 1.7-1 3.4-2.3.7-2 2-1.5 2.6-1.2 2.6-1.7 1.8-1.4 2.7.8 2.7 1.7.5v1.3l1.3 1.4-.7 2.7-4 4-2.4 1.2-1.4 1.4-1.9.8-.4 3.1-1.5 1.5-1.6.6-1 3.7h-1.7l-2-.3-2.8 2.9-1.4.7-1.2-.5h-1.2l-1.2 1.3v2l.9 1.1-1.4.6v3.8l1.9-.3 1.2 1.4-3.4 3.5.4 2.1h-4 0l-3.7-.5-1.5-1z"/>
    <path d="M484 329.2l-1.5-1.5-1.3-1.4-1.7 1.4-1.1-1.5.8-2.2 1.2-3.7 1.6-1.7 3.4-2-1.6-2.7-.6-1.5h-1.8l-.6-2.3-.9-1.4 1.6-1v-.8h-.8l-1.5-1.6-1.1-.1.2-2.8-.7-1.3-.7-2.1-1.7-1-1.2 1.8-1.3-.5v-1.8l-1-.9-1.2-.4-1.3 1.4-.6 1.6-2.2-.6-.7-1.3 1.3-1.7-.8-1.2-1.4.4-1.8-.4-1.3-1.4v-1.3l-1.8-.5v-1.9l-1.6-.5-1.6-2.3-2.3-.9-.5-2.5-1.1-1.1-1.3 1h-1.3l-1-1-1.7-.2-1.9 2 .8.7-.8 1.9 1 1-.9 2.3 3 3.1 1.8-.7v1.3l.7.8-.4 2.2-1.6 1-1 2-2.4-.7-1.6.9-1.9-.2v3l2 1 .8 2.7 1.3 1.5.8 2.8 1.8 2 1.7-.6 2.3 1.2 1.7 1.7.6 1.7-1 3.4-2.3.7-2 2-1.5 2.6-1.2 2.6-1.7 1.8-1.4 2.7.8 2.7 1.7.5v1.3l1.3 1.4-.7 2.7-2.5 2.4-1.6 1.7-2.3 1-1.4 1.5-1.9.8-.4 3.1-1.5 1.5-1.6.6-.5 2-.5 1.7h-1.7l-2-.3-2.8 2.9-1.4.7-1.2-.5h-1.2l-1.2 1.3v2l.9 1.1-1.4.6v3.8l1.9-.3 1.2 1.4-3.4 3.5.4 2.1 1.5 1.5.9 1.7 2.8 1 3.2-.5h4.4l3-1h3.4l1.4-1.3 2.5-2.7 3.4-1.7 2.5-1.7 1.8-2 1-3.2 3.8-4 2.6-1.1 2 .7 2.2 1.2 3-1.7 2.1-1.3 2.9.5 4 .4 3.4-1.4 2-2.1 1.5-3.5 2.2-.6v-3l-1-1-1.5-3.2 1.2-3.1v-3h0l.6-4.7.9-1.9z"/>
    <path d="M448 273.5l-1.5-1.6-1.1-1.2h-1.7v1.6l-1.5 1.6-2.3-.4V272l-1-1v-2l-2-.2-2.5-1.1-2.2.2-2.3-.3-1.2 1.6-.7 2.1-1.4 1.6.6 2-.8 2.5-2 2.1v3.8l-2.8 2v2.3l-1.2-1.7v-2l-1.4-1.4-1.3.6-.3 1.8-3.6 1.4h-1.6l-.7 2-1 1.7-2.3.2-2.6-2.7-.2-5.5.3-3.2v-3.1l.4-2.8v-2.6l-1.9-.9-1.3-.4-.2-1.3-.6-1.5-1.2-1.3v-1.5l.8-.8.3-2-1.2-1.2h-1.5l-1.7-.9V257l.7-.7-.7-.8-.6-2.4-1.4-2.4-1.6-1.2-1.7.5-1.8.2V248l1.5-.4v-1.5l-1.5-1.5-.6 1.2-.9 1-1.2-.3-1.4 1.4-1.5.6-.8 2v2l.7 2.1-.6 1.8v1.6l1.9 1.9 1.1 1.2-.5 1.6-.8 1.3 1.4 1.4-1.3 1.3-1 .7v3l-1 .7-.5 2-1.9.7.5 2.6-.8.9-.3 2.4.5 2.2 1 .5 1.8 1.8.7-.8 1.7.7v2l.6 1.6-1.2-.2-.8 1.5-.6 1.2.4 1h1.7l.8 1.8.6 1.6-1 1-1 1.7v1.4l-.5 1.2H384l-1.3-1.3H381l-.7-1.3-1.6-.7-.4-1.2-1.4-.3-1.8 1.2-.5 2.2 1 2.2-1.5 2.2-2.3 2.4-1.6 2.3-.5 2.3-.8 2 1.5 1.6-1.5 1-2-1.4-1-2.5-1.8-1.8-1.6.9-.8 2.4-2.6 1-2.1-.4-2.3.5v3.3l-1.3 1.3v3.1l1.5 1.5 1 2.5v1.5l-1.6.8-.8 2H352l-.4 2-.7 1.8 1.1 1.8v1.7l-.8.7v2.5l.5 1.5-.8 1.3.3 1.8-3.1.2v1.3l-1.3-.2-.5 1.4 2 1.3 3 3 1.4 1h2l1.5 1.2 2.4.3 2 2 1.3.7h2.3l1-1 2 2 4.5-4.6 1.7 1.2-.6 1.2 2 1 1.2 1.2 2.6.8 1.2 1.2 1.4.7 1.5 1.6 3.4-.7 2.9 2.8h1.6v1.5l1.2 2h3l.6 2 2.4-1.4h1.8v-3.2l2.4-2.6 2.9-3.5 1.4-3.8 3.8-4 4.2-5.2.7-7.8 1.5-5.2-2.3-.7-2.2-10.8.8-1.6 1-1.1-1.8-1.4-1.7-.5-.6-3 3.3-2.5h1.7v-2.3l1.6-.7 2.3.8 2.3-.9V306l1.7-1.3.9 1h2.7l1.6-1.1 1 1 3.3.7 1.3-1.4 1.5.8 2-2.1h1.7v-4.4l2-1 1.1-2.5 2 .5 1 1-2.4 2.2 2 .2 1.5-1 2.4.7 1-1.9 1.6-1 .4-2.2-.7-.8v-1.3l-1.7.7-3-3.1.7-2.3-.9-1 .8-1.9-.8-.8 1.9-1.9 1.7.2 1 1h1.3l1.3-1 .3-1.2-3-3.1h0l-.8-2.5-1.4-.1zM208.2 321.4l-2.3-.2-.3-3.3-4.2-2.7.4-2-1.5-.2-.6-1.5h-1.9l-1.2-1.2-1.7-.3v-2.5l-1.3-.4-1.8-2.7 1.3-2.3 1.3-1-.6-2 .9-.9-.4-2.4 1.8-1.9 1.6.4 1.2-1.3 1.4.6 2.5-1.3v-1.8l-.5-1.5.6-2 1.5 1.1h2.2l1.7-.5v-1.4l.8-.9 3 .9 1.1-1.3h3.2l1-1 1.6-.5 1.8-.7.8-.9v-1.7h1.1l1.4 1.2 1.3.7 1.4 1.4h1.6l2.1.6 1.7 1.7 1.2 2.3 1.4 2.3v2l2.1.4v1.8l1.1 1.2 1.8.6 1 1h2l1.3 1.3h1.7l-1 1.4-1.6 1.7-2.1 1h-2.6l-1.6-.4-1.8-1-1.1 1h-1.8l-1.3-.8-1.2-.6-1.8-.6-1.5-.5v-1.3l1-1-1.6-1.8-1.6 1.1-1 1.7-1.2 1.3-.2 1.7.7 2.3-1.6.8v1.2l1.4.8 1 1 .5 1.3 1.6.9v1.4l-.7.8-2 .4-1.2 1.2-1.5 1.5v2l-.5 1.1-1 1.2-1 .1v1.5l-1 1.1-.6 1.3v1.3h-2 0l-.9-2h-2.6z"/>
    <path d="M186 300.4l-1.1.4-1.6-.7h-1.4l-1.7-.7-2.7 1.9-1.1-1.2-1.2-1.2-1.5-.8-1.4 1.3-1.4-1.5-1.4-.1-.4-.9-1.9-.6-.6-1.1-1.8-1.3-1.4.6-1.4 1.4-1.2-1.9h-1.5l-2.5-1.8-1.4-2 1.4-1.5.9-.9v-1.9l.7-1.5.6.7h2l1.8-1 .5-2 1.1-1.9h1.5l1.2 2 .8-.8 1.2-1.2-.9-.9v-1l1.9-1.4 1.8.5 1.3-1.2 1.3-1.3-1.1-1.2v-.8l1-1.1.8-2.5-1.4-2.2v-2.8l1.8-1.6h1.8l1.4-1.5 1.6-2.4 2.2-2 1.1-3v-2.3l2.2-1.1v-1.8l.5-1.5 1-1 1.5 1v1.3l.9.9 1 .7 1.3 1.4 2.5 2.6 1.6 3 1.3 1.3v3l-1.1 1.5.6 3.4-.7 2.7 1.4 1.4v2.2l-1.3 1.3.5 2.5 1.7 1 1.3 1.6v1.7h1.3l1.2 1.3-.6 1.3v2.5l1.1 1.2-.6 2.1.5 1.5v1.8l-2.5 1.3-1.4-.6-1.2 1.3-1.6-.4-1.8 2 .4 2.3-.9.9.6 2-1.3 1-.9-1.1h0-2.3l-2.5 2z"/>
    <path d="M212 217.5l-.3 3.6.5 3-.8 2.6-2 2 1 1.1 1.8 1.9 2 2.1 3-.6 2.2 1 2.2-1 2.4 1.3 2.4 2.1-1.8 2 1.6 1.8 2.8.5 1.5-1.5 1.6 1.7 1.2-1.3h2.8l2.6 2.7.5 3v1.9l2.4 2.4-.5 2.2.7 2.2 3.8-.4h1.8l1.5 2.6h1.9l2 2.3 1.9-.4 2.6.7 1.7 1.7 1-1 2.8 1.2-.7 2 2.2 1.3 1.7 1.7h7.7l.8-1.5 2-1 2.1-1.6.9 2.3 2.2 2.9 1-1 3 1 1.6 2.7 1.6-.6h1.5l2.2 2.9v3.3l2.7 1.9 3 1.3-1.5 2.7-3.8 1.7-2.4 2.5-4-3-4.1 1.9-.8 2.7-2.8-1.5-2 .5-2.5-2.5-2.6 1-3.4-.4-1-1.4h-3.6l-2.5-1.1-3.4.5-1.3 2.6-1.2 3.1.2 3.5-3.5 1-3 2.2-.2 2.3-3 1.8H244l-1.4-1.3h-1.9l-1-1-1.8-.6-1-1.2v-1.9l-2.2-.3v-2l-1.4-2.3-1.2-2.3-1.7-1.7-2-.6h-1.7l-1.4-1.4-2.7-2h-1.2l.1 1.8-.8.9-3.5 1.3-.9 1h-3.2l-1.1 1.2-3-.9-.8.9v1.4l-1.7.5h-2.2L203 287l-1.1-1.2v-2.5l.6-1.3-1.2-1.3H200l-.1-1.7-1.3-1.6-1.7-1-.5-2.5 1.3-1.3s.3-1.8 0-2.2l-1.4-1.4.5-2.3-.4-3.8 1-1.5c.4-.4 0-3 0-3l-1.2-1.3-1.6-3-2.5-2.6-1.4-1.4-1.8-1.6V247l-1.5-1 .4-1.9 2.6-2.7V240l.9-1.7-.4-1.9 1.4-2.8 2.2-1.4.2-2 2.6-1.6-.4-2.4 1-1.9 2.1-2.2 1.6-1.7 1.4.5v1.7l1.8-.3 2-2 2-1 1.1-1.4 2-.3z"/>
    <path d="M355.7 118.7l-.9-.5h0l-.4.6.9.6z"/>
    <path d="M352 111.3l1-.3-.2-1.3-1 .3-1.1-.7h0l-1 .6 1.4.7z"/>
    <path d="M340.7 99.2h-1l-1.3 1.8v1.5l-.5 1 .4 2.7-1.2 1.1.1 2.7-.6 2.3-.5 2.3 1 .5 1.7-1.5 1.1-.7 2.4-1.3 2-.2 2.3-1.9 1.2-2.3-.8-2-.8-1.4-1.2.5-1.2-2.1-.8-1-1 1.4-.8 1.9h0V103l.1-2.5z"/>
    <path d="M332.6 93.8l-.9 1.1-.7 1.5-.7-.3.5-1.9v-2l-2.2.7-1.5.4-1.7.6-.7 1.5-.4 1.3-.9 1 .3 1.4-1.6 1.3.8.7 1.1-.4 1 1.4v1.3l1 1 2.2.3.2 1.3 1.6-1 .8 1.3 2 .7 2.1-1 1-1.3-.8-1.6-1.3-1.8 1-.7.4-1.7-.5-1.9.2-1.9-2.3-1.3z"/>
    <path d="M329.8 126.7l1.2-1.2-.1-1.2h0l-1 1.2-1.3.3z"/>
    <path d="M315.8 124l-1-.1h0l-.5.8.7.6z"/>
    <path d="M304.9 151.1l-1.2.6.5 1.3c0-.2.9-.4.9-.4l-.2-1.5z"/>
    <path d="M297 144l-.4-1.8h0l-1 .9.5 1.2z"/>
    <path d="M298.5 157.2l.1-1.5-1-.2-1.4-.3h0l-.2 1.1h1.7z"/>
    <path d="M291.8 98l.3-1-1.5-.8h0l-.5.6.6.4z"/>
    <path d="M285.2 168.6l1-1.1.3-1.3-.9-1-.8.4h0l-.7.9.4 1.2z"/>
    <path d="M298.2 84.8l1-.3.7-.7-1.2-.5h0l-.8.2-.5.5z"/>
    <path d="M317.4 83.6l1.2-1.2v-.8H317h0l-.7.8.6.6z"/>
    <path d="M320.8 84.4v2l.8 1-1.1 1.1-.8 1.6 1 1.4.5 1.5 1.8 1.7 1.6-1.7h1.2l1.6-1 2-.6-.5-2v-2.5l1.2-1-1-1-2-2.2-.8-1.6-1.7-.5h0l-.3 1.6-1.4.7z"/>
    <path d="M318.8 97l1.7.5.7.8 1.1-1.1.6-1.6-1-.8-2-.5h0l-1.4-.2.3 1.8z"/>
    <path d="M300 137.2l-1.4-.8h0l-.5.5.7.6z"/>
    <path d="M370.3 196.6l.6 1.5.8 1.9 1.8 1.3.2 3.6 1.9 3.5v1.4l.4 2.8.6 4.2-1.6.5-1 1.8-1 1 .6 1.9.6-.7 2 .9v1.8l.7.7-.7.7v2l1.8 1 .6 3 2.2 2.2-.7 2.1-1.3 2 .5 1.7v1.5l-.6.7v2.1l1.1.6h1.7l.9-.9h1l1 1.2 1.8-.8 1.5.7 1.1-1.2 1.6.1v1.3l-.5 1.2-.9 1-1.2-.3-1.4 1.4-1.5.6-.8 2v2l.7 2.1-.6 1.8v1.6l1.9 1.9 1.1 1.2-.5 1.6-.8 1.3 1.4 1.4-1.3 1.3-1 .7v3l-1 .7-.5 2-1.9.7.5 2.6-.8.9-.3 2.4.5 2.2 1 .5 1.8 1.8.7-.7 1.7.6v2l.6 1.6-1.2-.2-.8 1.5-.6 1.3.4 1h1.7l.8 1.7.6 1.6-1 1-1 1.7v1.4l-.5 1.2H384l-1.3-1.3H381l-.7-1.3-1.6-.7-.4-1.2-1.4-.3-1.8 1.2-.5 2.2 1 2.2-1.5 2.2-2.3 2.4-1.6 2.3-.5 2.3-.8 2 1.5 1.6-1.5 1-2-1.4-1-2.5-1.8-1.8-1.6.9-.8 2.4-2.6 1-2.1-.4-2.3.6v3.2l-1.3 1.3v3.1l1.5 1.5 1 2.5v1.5l-1.6.8-.8 2H352l-.4 2-.7 1.8 1.1 1.8v1.7l-.8.7v2.5l.5 1.5-.8 1.3.3 1.8-3.1.2v1.3l-1.3-.2-.5 1.4 2 1.3 3 3 1.4 1-.5 1.4-1.2-.5-1 1-2.3-.2-2 2.1-2.8-.5-1 1.1-.6 4-2.5.6v1.8l-1.6 1.7v2.8l-2.2.6-3.1 2.8-2.2 1H328l-2.2-1.1h-2.3l-2.5-1-1.8-1.8.7-1.1 1-2.5 2-.9 1.7-1.8-.3-2.2 1.7-1.8.7-2.3-.6-1.8v-2l-2.3-2.4-.6-2.6-2.2-2.2.7-3-.6-1.3-2 .7-3.2-.3-1 1-2-.4-2-2.3-1.2-2 2-2 1.2-.6-.2-3.2-1-2.2-1.6-.5-.8-.8-.3-1.8.5-2.3v-3.3l1.4-2.5 2.3-1.2-.3-2.5-2.9-1h-1.8l-.5-1.7-1.6-2.7 1-2.8 3.4-3.8-1-1-3 .2-.7-2.6-2-2-1.3-2-2.6-.7h-3.3l-3 .8-2.2-.8-.7-2.2 2-2-2.1-4.4 2.4-2.5 3.8-1.7 1.5-2.7-3-1.3-2.6-1.9V272l2.4-2.6 1-1V266l1.6-1.6v-2.7l-1.6-2.3 1-2.1 1.6-2 1.5-1.5-.8-1.8.4-2.3-.4-2.6-1.2 1.2-1.2-1.2-2.5-.6-.5-2.3 1-1-.1-2.6-1-2-1.3-1.3h-1.2l-1.2-2.2 1-.7v-2l-.8-1.3V230l1.4-1.4-.9-2-2.3-1.3v-1.6l-1-1 1-1.6-.4-2-1-1v-1.8l1.5.3.4-1.3 1.1-1.2.7-2.1-.8-1.7h.8l.6-1.5-1-2.6v-1.7l-1.7-.3v-2.1l-1.2 1.2c-.2.2-.6-.6-.6-.6l-1.3 1.1-.7-.7-.3-1.4-2-.3-1.3-1.4-.3-1.2-1-1v-2l1.9-1.5 1.6-1.6.8-1.3h2v-3.8l.3-2.6-2.3-1.4-.7-1.3-.4.6-.7-1.5 1.5-1.5 2-.3-.2-1.2 1-1-.4-1.4-1.4-.9-1.4-.2-.9-1-.4-1.2h-1l-.1-1.3 2.1.4 1.8-.2 1.4 1.5 2.7 1.5-.7 2.2.7.7 1.8 2h3l.3-1.8-1.1-1.7v-1.5l-2-.8-1.4-2.5-.9-.9.7-2.6 1-2.2-1-.9-.5-2.7 2.2-2h5l2.5 1v-.7h4.1l2.8-1.2h2l1-1-1-1.7-1.3-.5-1-1 1.2-1.3c.8-.8.8.8.8.8l1.2-.3-.8-1 .6-1.4-1-1 1.1-1.5 1.5-1.2h-1.5v-1.7l2.9.1 1.2-2.5 2.9-1.2 1.1-1.1 4-.6 1-1 2.8-1 .7-.7-2-.7 1.1-1 2.8-.7 2.3-.4.5-1.2 2-.3-1 2v1.6l1.3-1.4 3.3.1.3-1.7 2.1-.5 2.1.5-1-1.4-1.2-1-.6-1.2h2.3l2.4-.7h.8l-.2-1.9-.9-.6V125l.5-1.7 1.6-4 2-1.5 1.6-1.9 2.2 1.3 1.5-.2.5 2.3-1.6 1.7-1.4 1.8 3.4.2.6-.7h2.1l1.5 1.6-1.3 1.4s-.1 1.5.5 1.5 2.3.7 2.3.7l.6-1.8-1-1 2.3-1.3h2.2l2.1-1.6 1.2 1.2 1.7-.8 1.2 1.3 1 2.2 1.3 1 .8-.8 1 1.1 1.5 1.5-.2 2.3-2.1-.4.8.9 2.2 1.2 1.3 2.3-1.2 1.3v2.2l-1 1.5-1.1 2.2-1.2 1.2-2.1 2.7v1l-.7 3.1-1.6 1.7-.6 3.4-2.5.6-.8 2.5-1.8 1.8-.4 2.9-.5 2 1.9-1-.5-2.1 2-1.2s1.6-.6 2.6-.6 1.3-2 1.3-2l1.8-1.5 1.7-.7 1-2-.8-.8-1.3-.1.1-.9v-1.8h2.8l.2 1.9.9.7-.2 1-.7.8.4 1.3 1 1.4.9 1-.4 2.2.8 1.6 2.1.8v1.2l2.9 2.1 1.3 1.4v2.7l1.5 3h1.7l.2 2.2h-1l-.3 1.5-2 2.1-1.8 1.3V184.3l-1.5.6-.6 2.1 1.2 1.3v1.8l-.6 1.5-2.2-.7-1.6.5-2.3 3.4-2.2.9v.9"/>
    <path d="M290.7 291.8l.7 2.2 2.3.8 2.9-.8h3.3l2.6.7 1.3 2 2 2 .6 2.6 3-.3 1.1 1.1-1.8 2.1-1.6 1.7-1 2.8 1.6 2.7.5 1.7h1.8l2.9 1 .3 2.5-2.3 1.2-1.4 2.5v3.3l-2 1-2.3 2.2-1.1-1.2-2.4 1.3-1.9-.9h-2.2l-3.6 3.3h-3.7l-2.1 1.2-2.8-.2-2.7 3-1.1-1.2 1-1-.9-.9v-2l-.4-2.8-1.3-.7-1.6 1.6-2.5.7h-2.1l-1.9-2.7h-4.6l-2-3-1.5-1.5-1.8-1.8-2.9-1.2-2.4-1.4-2.8-.4h-2.6l-1.3-1.3-2.3-.6-.7-1.9-1.2-2.4.4-2.8-1.2-1.3v-2.2l1.2-2.9-.4-1 3-1.8.4-2.3 2.9-2.2 3.5-1-.2-3.5 2.5-5.7 3.4-.5 2.5 1.1h3.7l.9 1.4 3.4.4 2.6-1 2.5 2.5 2-.5 2.8 1.5.8-2.7 4.2-1.9 3.9 3h0l1.2 2.6.8 1.9z"/>
    <path d="M307.5 324.5l-2.3 2.3-1.1-1.2-2.4 1.3-1.9-.9h-2.2l-3.6 3.3h-3.7l-2.1 1.2.3 3.6.7 1.6.5 3.3-.4 4.6 1.4 2.1 1.3 2.6h1.9l1.3 2.7 1.2 1.2.4 2 1.7 1.1h1.6v1.5l-1.5.8.9 1.6.2 2.1.6 1.8 2 2h2.2l1.8 1h1v1.9h1.6v-1.8l1.4-1.5 1.9-2-1-1-.7-1.3.3-1.2.8-.9-1-1.3-1.1-1.1 1.9-3V349.7l.7-.7v-1.3l-1.9-.4-1.2 1.3-1.5-1.5 2-.6v-2l.4-1.8-1-2.2-.8-2.2 1.6-1.4 2-2 1.2-.5v-2.9l-1.3-2.5-1.5-.5-.8-.8h0l-.3-1.8.5-2.3z"/>
    <path d="M315 341.7l1-1 3 .3 2-.7.7 1.4-.7 2.9 2.2 2.2.6 2.6 2.3 2.3v2.1l.6 1.8-.7 2.3-1.7 1.8.3 2.2-1.8 1.8-2 .9-.9 2.5-.7 1-2.3 1.3v2.4l-2 2.1-4-.6-.9 1H309l-1 2.1h-1.7l-2.2-2.2 1-1.1-.5-2.1 2.9-3h1.5v-1.8l3.3-3.5-1-1-.7-1.3.3-1.2.8-.9-1-1.3-1.1-1.1 1.7-2.7.2-3.5.7-.7v-1.3l-1.9-.4-1.2 1.3-1.5-1.5 2-.9v-1.7l.4-1.8-1-2.2-.8-2.2 1.6-1.4h0l1.2 2.1 2 2.3zM8 315.4v1l.5 1 2.3 2.4h1l.3-.4 1.2.7.6 1.5-.7.7h-1.1l-.7 1.2h-1v1.8l.4 1.1-.2.9H8.2l-.8-.4-.9 1 1.6 2 .6 1.2.5-.5 1.1-.2v-.9l.8-.6 1.2-1.2 1-1.7 1-1 1-.4.5 1.4.5-1.2v-4l-.7-.5-.6-.6-1-.6-.3-1.2-1.4-.4-.5.3-1.3-.4h0l-.7-1-1.2-1.3z"/>
    <path d="M444.7 86.4l1-1 1.5-1.6 1 1.2h.4l1.2-1.3 1.1-1.3 2.2-1 1.5 1.2-.9 2.5v1.3l-1 1-1.6.8-1.7.7h-1.7l-1.3 1.4-2.1-.8-1-1.6-.5-.7h0l-.2-.8 1.4.7z"/>
    <path d="M433.5 91.5l-1.1-1.2-2.8 1 .2 1.7.7.8 1 1 .8.8-1 .9-1.5-1.3-.8.8-1-1-2.5.4-1-.6-.5 1.3.8.8-1.5.8v1.9l1.2 1.2-.3 1.4h1l1.4 1.4-.4 1.6 1.7.9h2.4l1 1h1.6l2-.5V105l-1.2-1.2.7-.7 1 1 1.8-3.3 1.7-1.8.7.8 1.5-1.6.5-1.5-1.7-.6-1.2 1.2-1.4-1.1-1.8-1-1.7-1.4.6-1.3 1-1 .6 2.6 1.1 1.2 2 .3 1-.5h1l1-1-.5-2h-1.5l.4-1.9V89l-1.3.4h0-3l-1 1z"/>
    <path d="M441.8 110.8l.9-1.9v-1.5l-.7-.6h-1.2 0l-.8.8.6 2z"/>
    <path d="M445.4 112.4l-.7 1.6.6.6.8-1.9 2.2-.5 2-.8 2.6-1.6-1.4-2.6h-1.8l-2.6-.8-1.2 1.1-1.1 1.1h0l-1.1 1.2.6 1.5z"/>
    <path d="M421.7 104.4l.7 2.4h1.2v-1.3l-.5-1.1h0l-.8-1h-1.6z"/>
    <path d="M374.7 146.2l.5 1.2 1.3-.6 1.4-1.5v-2.4h-1.8l-1 .2h0l-1.9 1.8v1.3z"/>
    <path d="M438.5 74.1l-.7-1h0l-.6 1 .6.7z"/>
    <path d="M431 117.1l1.4 1.1.5-.8-.5-.9h0l-1.9-.4-.5.5z"/>
    <path d="M517.5 84.3l-2 2.1V88l1 1h-2l-2 1.6-2.6 1.2-3-3-1.4-1.6-3 .2-3.4.6-2 2.5-2.3 2.3-2.6 4v3.2l-2.2 2.8-2 2-2.2.1-2-1-2.9 1.6s.7 2.8.3 2.5l-2-2.2-1.5 1.8h-2.3s-1.4-.5-.7-1.2 1.6-2 1.6-2l-2-1.4-3.1 1.4-2.3 1.1-1 2.7-.3 1.6.6 3.5v2l-1.8 1.8.5-4.3-2-.6-1.6 1.6-1.8 1 .8-3s2-.8 2-1.5c0-.6-.4-1-.4-1l-3.1 1.4-4 1.5-.8 2.5-3 1.5h-2l-1.3 1.5 2.2 1.4.3 1.5-2.3 2.2v2.3l1.2 1 1.1-3 .7.7v2.4l1.8 1 1.6 1.7.8.4-1.6 1.6h-2l-1.2 1.2-.9 1 2.5 1.1v1.7l-2.3-.7-2 .1-2.8.7-1.5 2.8.5 2.9h-2.6l-2.3.6-1.5-1.5-2.7-.3v2l1.4 1.4v1.5l.6 1.7 1 3.6-.1 2-2.5-1.2-1 1-2.1-.5-1.6-1.1-2.1-2.1h-2.2v-1.7s-1-1.6-1-1c0 .5-1 1-1 1l-1.6-1.5.9-.8 1.3-.5V142l-1-1-2 1.2v-2l-1.2-1.3h-1.3l.9-2.7-2.6-.9-.7.8-2.3-1.9s-.2 1-1 1-.7 2-.7 2l-.9.8-.8-1-.9.2-.4 1.3-1.7-1.2-1.1-1.2-1.3 1-1.3-1.2-.3 1.3-.4 2.5 1.5 2.5.4 2.2s.5 2 0 2l-2.9.4-2.2 2-2.3.9-1.2-2.1-.3 1.2-.2.9h-3.2l-1.8-1.8.8-.8-.8-1.3-3.2 1-4 .8-2.7 1.4-2 2-1 1.1 1.5 1.4h-1.5l-1.2-1.8v-2.2l-1.2-1.2-1.3 2-.4 1.3-2.1-1-1.8-.4.2 2 .9.7-.2 1-.7.8.4 1.3 1 1.4.9 1-.4 2.2.8 1.6 2.1.8v1.2l2.9 2.1 1.3 1.4v2.7l1.5 3h1.7l.2 2.2h-1l-.3 1.5-2 2.1-1.8 1.3v4l-1.5.5-.6 2.1 1.2 1.3v1.8l-.6 1.5-2.2-.7-1.6.5-2.3 3.4-2.2.9v.9l.6 1.5.8 1.9 1.8 1.3.2 3.6 1.9 3.5v1.4l.4 2.8.6 4.2-1.6.5-1 1.8-1 1 .6 1.9.6-.7 2 .9v1.8l.7.7-.7.7v2l1.8 1 .6 3 2.2 2.2-.7 2.1-1.3 2 .5 1.7v1.5l-.6.7v2.2l1.1.5h1.7l.9-.9h1l1 1.2 1.8-.8 1.5.7 1.1-1.2 1.6.1v1.3l1.6 1.6v1.4l-1.5.4v2h1.8l1.7-.6 1.6 1.2 1.4 2.4.6 2.4.7.8-.7.7v1.5l1.7.9h1.5l1.2 1.2-.3 2-.8.8v1.5l1.2 1.3.6 1.5.2 1.3 1.3.4 1.9.9v2.6l-.4 2.8v3l-.3 3.3.2 5.5 2.6 2.7 2.3-.2 1-1.7.7-2h1.6l3.6-1.4.3-1.8 1.3-.6 1.4 1.5v1.9l1.2 1.7v-2.3l2.8-2v-3.8l2-2 .8-2.5-.6-2.1 1.5-1.6.6-2.1 1.2-1.6 2.3.3 2.2-.2 2.4 1.1 2 .3v2l1 .9v1.6l2.4.3 1.5-1.5v-1.7h1.7l1.1 1.2 1.5 1.6v1.6h1.3l.8 2.6 1.4 1.4 1.7 1.7-.4 1.2 1 1.1.6 2.5 2.3.9 1.7 2.3 1.5.5v2l1.8.4 1.8-2 2-1.7h2.1l1-1 1.1 1.2 1.6.4.8-.8h2l1 1.2h1.3l.4-1.7 2.6.6 1-1 1.9-.4 1.7.8 2.3 2.3 1.7-.8 2-.5.8-1.2 1.5.7 1-1.1h1.2l1.1 1.2 1.1-1.2 3.1-3.2 2.3.4v-1.5l2.9-1.1 2 .4 2.1-1.4v-2.2l3.4-2.2 3.2-2.7-1.2-2.9v-2.2l-1.4-1.4 1.2-1.3.4-2.8-3-1.3h-2.3l-.3-1.4 1.7-.4-.9-1.8.5-3.3-2-.4-2-2.1 1.8-.4.2-2.6-.8-.8-.5-1.4.7-1.7-1.4-1.4 1.2-1.6-1-1v-2.3l2.1-1.2 1.5-.8 1.7.2 1.5-1.5 1.8-.8.3-1.9-1.2-1.2.7-1.9 2.4-.4 3.3-3.4-.2-3.8 2.4-.8V220l-2.3-2.4-.5-1.7-2.6-2.6-1.6-.4-.3-2.1.4-2.5-1.3-1.4 2-2.6V199l-1-1-.5-2-.9-1v-2.5l1.8-.4 1.6.4 2 1.2 2-1.1 1.8-.6 1.6-1.7 1.2-2.2 1.6.1 1-.6.6.7.9-.3V186l-.1-3 .3-2-1.6-1.7-.4-1.3-1.4-1.5-2.5-1.3-.7-1.6-1.7-2.4V170l-.8-.4.4-2.2.7-.7-1.2-1.2.3-1.9 2.7-1.2v-1h2.2l-.2-2.4-1.6-.5-1-1.4 1.2-1.3h1.4V154l1.3-1V152l1.6-.4 1 1.2 1.4-.2.8-1.6-.5-1.3 1.5-2.4.4-1.6 1.5-.3V144l-.8-2-1.7-1-1.6-1.7v-2l-.2-2.2-1.6-.8-1-1.6v-1.8l1.2-.3-.6-1.8-1.8-.5.3-1.7 1.9-.7v-2l.8-.8h2l.3-2.3h2.6l1.1-1-.7-2.3 1-1.9-1.3-2.1h-1.2L533 111l-1.3-1.4H530l-2.2.8-2-.9-2-.3v-2.6l-1.7-1-.9-2.1 1.3-2v-2.3l1.4-1V96l1-2.7 2.2-1.7-1.7-2.8-1.9-.8-.5-1.4-2.1-.2-2.5-1-.9-1.2z"/>
    <path d="M80.4 175.2l4 12 2.5 1.2 1.5 2.9 1.2 4.6-1.5 3.3-1.4 1.8-1.4.2-.6 1.2-2-.3-1.2 1.1-.8-3.2-.9-.9-1.2-.4.7-1.4V196l-1.4-.6-.1-1.3-1.6-.2-.9 1-1.1-1.5.3-2.9-1-.2-1-1-1 .8-1.1.3-1.6-.7-1.7-.2h-2.5L64 188l-1 .4-.7.8-1.4-.1-.4-2.2.6-2-.7-1.5-.1-1.6-1.4-1.4.7-1.5-1.3-1.6 2.1-1.3 2.9.7.4-1.7 1-1 1.8 1 1.5 1.6 2.3.7.8 2-.3.4v.6l-.5 2 .7-.2 1 .7.4-.3h.4l1-.5v-.8l.5-.6v-.9l-.3-.3-.7.8-.3-3.2-1.9-1.8v-3.7l1.7-.4.6-.6-2.4-1-1.3-1.6h9.7v3.2z"/>
    <path d="M84.4 187.2l2.5 1.2 1.5 2.9 1.2 4.6 2.4-1.4 1.6-2.4 1.1.7 2-1.1 1.7-.6 1.8.3 1.5.7 1.8-.3 1.4.8v1l1.6 1.7.7-1 .8-.1 2.1-2.2.4-1.7-.2-1.5 1.7-.6.8-2.2-2-2 .3-2.8.5-1.2 1.3-.7.7-1.6-.1-1.7.6-.7.8 1 .5-.4 1 .7 1.5-2 1.5-2.8-1.6-5.1 2-2 .8-4 2-2 2.6-.9 1.5-3.4.4-2.4-1.5-1.6 1.2-1.2-.1-2.8-1.3.1-1.1-.7-1.8.5-1.2-1.2.6-1.6.2-2-5-4.7-4 7.5-1.8-.9-3.7 3.1-1.7.1v3.8l-1.9.7v2.9l-2.5 2h-3l-.7 7.3v2.8l-4.5 1.7-14 .1h0v3.2l1.1 4.1z"/>
    <path d="M117.2 137.4c-.3-1.8 2.5-3.5 2.4-4.5 2.8 2.3 3.3-1 6.1-.3 1-.1-1-2.6-1-3.9 1 1.8 1.1 2.6 1.4-.4 2 2.7.5.4.4-1.6.6-.8-.5-4.1.8-2.8.9-1.2-.1-4 2.4-4 2-.3 3.9-1.4 5.8-1.8 2.5-.4 5 1.2 6.3 3.2 1.8.4 4.2 1.6 2.1 3.4.8-1 2-2.2 2.4-.2 1 .6-.5 3.4.8 1.4-.3 1.3.2 2 1.4 1.5 1.4 1.6 2.5 3.3 3.8 5 1 1.3 2.2 3 0 3.6-1.4 1 2.5-1.6 2.2.7.2 1.8 1.9 3.3 2 5.2.8 2.4 1.7 4.8 1.3 7.3 0 2 .3 4.2-.2 6.2-1.1.2-2.2 2.4-3.7 3.2-1.6 1.4-4.2.4-5.5 2.2-.3 2-3.9 1.8-4-.3-.8-1.2-2.1-1.9-2-3.5-1.7-1.4-1.6-3.4-2.2-5.4-1.9-.6-5-.8-5.3-3.2-1.5 1.1 0-1-.7-1.8.3-2.3.4-5-1.8-6.4-1.5-1-4-1-3.8 1.3-.5 1.8-.3 4.4-1.6 6-1.6.5-3.2-1-4.9-1-.7-.5 0-3.3-1.5-4-1.5-1-.8-3.2-2.4-4 1.6.5-.9-.7-1-1z"/>
</svg>